<svg width="306" height="306" viewBox="0 0 306 306" fill="none" xmlns="http://www.w3.org/2000/svg">
<g filter="url(#filter0_d_134_1517)">
<path d="M162.826 212.75L164.28 211.95L165.755 211.189L168.706 209.674L171.699 208.242L173.195 207.527L174.71 206.854L177.742 205.511L180.81 204.254L182.344 203.627L183.894 203.042L186.996 201.876L190.13 200.798L191.697 200.26L193.278 199.766L196.441 198.78L199.631 197.885L201.225 197.438L202.832 197.036L206.046 196.234L209.283 195.525L210.9 195.171L212.528 194.864C217.12 193.938 221.775 193.302 226.434 192.761C231.097 192.237 235.782 191.956 240.458 191.762L245.379 191.676L250.301 191.743L248.458 197.164C239.108 190.527 229.79 183.845 220.516 177.103C211.251 170.349 202.018 163.549 192.838 156.678C174.482 142.93 156.311 128.93 138.366 114.637C131.974 109.547 125.611 104.421 119.268 99.2685L109.777 91.5099L100.324 83.7021L106.395 80.3489C107.844 91.2992 109.19 102.264 110.412 113.243C111.609 124.225 112.711 135.218 113.677 146.224C114.623 157.231 115.483 168.246 116.195 179.271C116.893 190.296 117.513 201.328 117.972 212.366C118.174 216.928 118.262 221.517 118.337 226.092C118.367 230.668 118.403 235.228 118.365 239.739C118.324 248.38 117.5 253.983 116.397 257.456C114.777 262.512 112.928 257.449 112.27 245.265C112.041 241.409 111.902 237.373 111.743 233.304C111.601 229.236 111.506 225.133 111.394 221.144C110.938 202.772 110.021 184.438 108.602 166.155C107.188 147.872 105.341 129.634 102.984 111.459C101.717 101.453 100.127 91.0803 99.0888 81.3213L99.0705 81.1491C98.8593 79.163 100.298 77.3819 102.284 77.1707C103.318 77.0606 104.307 77.4065 105.037 78.0357L105.102 78.0918C128.813 98.7804 153.838 118.208 178.611 137.686C197.025 152.164 215.921 166.221 234.821 180.144L243.287 186.356C246.116 188.416 248.945 190.475 251.773 192.534C252.983 193.415 253.25 195.11 252.369 196.32C251.829 197.063 250.982 197.45 250.129 197.435L250.107 197.435L246.894 197.357L245.286 197.319L243.679 197.331L240.463 197.357L237.248 197.48L235.641 197.546L234.036 197.657L230.826 197.884L227.623 198.205C227.09 198.261 226.555 198.305 226.022 198.371L224.426 198.58C220.161 199.083 215.934 199.862 211.721 200.702C209.627 201.18 207.519 201.603 205.443 202.16C204.403 202.43 203.357 202.676 202.322 202.964L199.221 203.848C182.724 208.697 166.941 216.087 152.687 225.771C149.253 228.062 145.985 230.488 142.79 232.895C139.639 235.358 136.552 237.799 133.643 240.327C127.784 245.34 122.386 250.419 117.445 255.427C115.201 257.75 113.825 258.606 113.564 258.109C113.433 257.859 113.583 257.271 114.043 256.356C114.274 255.899 114.582 255.36 114.971 254.742C115.358 254.123 115.827 253.424 116.413 252.676C122.87 244.051 130.781 235.843 139.449 228.624C140.345 227.889 141.26 227.17 142.173 226.444L143.55 225.361L144.963 224.317C145.91 223.626 146.849 222.92 147.812 222.244C148.783 221.581 149.756 220.916 150.729 220.25C154.661 217.647 158.685 215.151 162.804 212.883C162.81 212.839 162.815 212.798 162.826 212.75Z" fill="#3E5DFF"/>
</g>
<defs>
<filter id="filter0_d_134_1517" x="99.0499" y="77.1504" width="158.839" height="186.25" filterUnits="userSpaceOnUse" color-interpolation-filters="sRGB">
<feFlood flood-opacity="0" result="BackgroundImageFix"/>
<feColorMatrix in="SourceAlpha" type="matrix" values="0 0 0 0 0 0 0 0 0 0 0 0 0 0 0 0 0 0 127 0" result="hardAlpha"/>
<feOffset dx="5" dy="4"/>
<feComposite in2="hardAlpha" operator="out"/>
<feColorMatrix type="matrix" values="0 0 0 0 0 0 0 0 0 0 0 0 0 0 0 0 0 0 1 0"/>
<feBlend mode="normal" in2="BackgroundImageFix" result="effect1_dropShadow_134_1517"/>
<feBlend mode="normal" in="SourceGraphic" in2="effect1_dropShadow_134_1517" result="shape"/>
</filter>
</defs>
</svg>
