<svg width="934" height="934" viewBox="0 0 934 934" fill="none" xmlns="http://www.w3.org/2000/svg">
<circle cx="467" cy="467" r="156.5" stroke="black"/>
<circle cx="467" cy="467" r="321.5" stroke="black"/>
<circle cx="467" cy="467" r="466.5" stroke="black"/>
<g filter="url(#filter0_d_134_1520)">
<path d="M754.26 526.667C757.02 526.682 763.924 526.748 771.259 527.042L773.86 527.156C781.246 527.505 788.626 528.103 792.286 529.123C797.168 530.495 801.005 534.497 802.302 539.569C804.367 547.625 804.625 563.347 804.657 567.151L804.662 567.94V567.995C804.662 567.995 804.662 568.014 804.662 568.051L804.657 568.839C804.625 572.644 804.367 588.366 802.302 596.422C800.987 601.513 797.15 605.515 792.286 606.868C788.626 607.888 781.246 608.485 773.86 608.835L771.259 608.948C763.924 609.242 757.02 609.309 754.26 609.324L753.049 609.329H752.995C752.995 609.329 752.977 609.329 752.942 609.329L751.732 609.324C745.891 609.292 721.471 609.028 713.705 606.868C708.823 605.496 704.986 601.494 703.689 596.422C701.624 588.366 701.365 572.644 701.333 568.839V567.151C701.365 563.347 701.624 547.625 703.689 539.569C705.004 534.478 708.841 530.476 713.705 529.123C721.471 526.962 745.891 526.699 751.732 526.667H754.26ZM742.662 549.912V586.079L773.662 567.995L742.662 549.912Z" fill="#173DFF"/>
<path d="M801.817 539.693L801.817 539.693C802.837 543.671 803.416 549.573 803.743 554.984C804.069 560.385 804.141 565.258 804.157 567.156C804.157 567.156 804.157 567.156 804.157 567.156L804.162 567.94L804.162 567.943L804.162 567.995V567.995V567.995V567.995V567.995V567.996V567.996V567.996V567.996V567.996V567.996V567.996V567.996V567.996V567.996V567.996V567.996V567.996V567.996V567.996V567.997V567.997V567.997V567.997V567.997V567.997V567.997V567.997V567.997V567.997V567.997V567.997V567.997V567.998V567.998V567.998V567.998V567.998V567.998V567.998V567.998V567.998V567.998V567.999V567.999V567.999V567.999V567.999V567.999V567.999V567.999V567.999V567.999V567.999V567.999V567.999V567.999V568V568V568V568V568V568V568V568V568V568V568V568V568V568V568V568V568.001V568.001V568.001V568.001V568.001V568.001V568.001V568.001V568.001V568.001V568.001V568.001V568.001V568.001V568.002V568.002V568.002V568.002V568.002V568.002V568.002V568.002V568.002V568.002V568.002V568.002V568.002V568.003V568.003V568.003V568.003V568.003V568.003V568.003V568.003V568.003V568.003V568.003V568.003V568.004V568.004V568.004V568.004V568.004V568.004V568.004V568.004V568.004V568.004V568.004V568.004V568.005V568.005V568.005V568.005V568.005V568.005V568.005V568.005V568.005V568.005V568.005V568.006V568.006V568.006V568.006V568.006V568.006V568.006V568.006V568.006V568.006V568.007V568.007V568.007V568.007V568.007V568.007V568.007V568.007V568.007V568.007V568.008V568.008V568.008V568.008V568.008V568.008V568.008V568.008V568.008V568.008V568.009V568.009V568.009V568.009V568.009V568.009V568.009V568.009V568.009V568.01V568.01V568.01V568.01V568.01V568.01V568.01V568.01V568.01V568.011V568.011V568.011V568.011V568.011V568.011V568.011V568.011V568.011V568.012V568.012V568.012V568.012V568.012V568.012V568.012V568.012V568.013V568.013V568.013V568.013V568.013V568.013V568.013V568.013V568.014V568.014V568.014V568.014V568.014V568.014V568.014V568.014V568.015V568.015V568.015V568.015V568.015V568.015V568.015V568.015V568.016V568.016V568.016V568.016V568.016V568.016V568.016V568.017V568.017V568.017V568.017V568.017V568.017V568.017V568.017V568.018V568.018V568.018V568.018V568.018V568.018V568.018V568.019V568.019V568.019V568.019V568.019V568.019V568.019V568.02V568.02V568.02V568.02V568.02V568.02V568.02V568.021V568.021V568.021V568.021V568.021V568.021V568.021V568.022V568.022V568.022V568.022V568.022V568.022V568.023V568.023V568.023V568.023V568.023V568.023V568.023V568.024V568.024V568.024V568.024V568.024V568.024V568.025V568.025V568.025V568.025V568.025V568.025V568.026V568.026V568.026V568.026V568.026V568.026V568.026V568.027V568.027V568.027V568.027V568.027V568.027V568.028V568.028V568.028V568.028V568.028V568.028V568.029V568.029V568.029V568.029V568.029V568.029V568.03V568.03V568.03V568.03V568.03V568.03V568.031V568.031V568.031V568.031V568.031V568.032V568.032V568.032V568.032V568.032V568.032V568.033V568.033V568.033V568.033V568.033V568.033V568.034V568.034V568.034V568.034V568.034V568.035V568.035V568.035V568.035V568.035V568.035V568.036V568.036V568.036V568.036V568.036V568.037V568.037V568.037V568.037V568.037V568.037V568.038V568.038V568.038V568.038V568.038V568.039V568.039V568.039V568.039V568.039V568.04V568.04V568.04V568.04V568.04V568.041V568.041V568.041V568.041V568.041V568.042V568.042V568.042V568.042V568.042V568.043V568.043V568.043V568.043V568.043V568.044V568.044V568.044V568.044V568.044V568.045V568.045V568.045V568.045V568.045V568.046V568.046V568.046V568.046V568.046V568.047V568.047V568.047V568.047V568.047V568.048V568.048V568.048V568.048V568.048V568.049V568.049V568.049V568.049V568.049V568.05V568.05V568.05V568.05V568.051V568.051V568.051L804.157 568.835C804.157 568.835 804.157 568.835 804.157 568.835C804.141 570.733 804.069 575.606 803.743 581.006C803.416 586.418 802.837 592.32 801.818 596.297C800.545 601.224 796.835 605.084 792.152 606.386L792.151 606.386C788.556 607.388 781.236 607.985 773.837 608.336L771.239 608.449C763.912 608.742 757.014 608.809 754.257 608.824L753.049 608.829L753.047 608.829L752.995 608.829H752.995H752.995H752.995H752.995H752.995H752.995H752.995H752.995H752.995H752.995H752.995H752.995H752.994H752.994H752.994H752.994H752.994H752.994H752.994H752.994H752.994H752.994H752.994H752.994H752.994H752.994H752.993H752.993H752.993H752.993H752.993H752.993H752.993H752.993H752.993H752.993H752.993H752.993H752.992H752.992H752.992H752.992H752.992H752.992H752.992H752.992H752.992H752.992H752.991H752.991H752.991H752.991H752.991H752.991H752.991H752.991H752.991H752.991H752.991H752.991H752.991H752.991H752.991H752.991H752.99H752.99H752.99H752.99H752.99H752.99H752.99H752.99H752.99H752.99H752.99H752.99H752.99H752.99H752.99H752.989H752.989H752.989H752.989H752.989H752.989H752.989H752.989H752.989H752.989H752.989H752.989H752.989H752.989H752.988H752.988H752.988H752.988H752.988H752.988H752.988H752.988H752.988H752.988H752.988H752.988H752.988H752.987H752.987H752.987H752.987H752.987H752.987H752.987H752.987H752.987H752.987H752.987H752.987H752.986H752.986H752.986H752.986H752.986H752.986H752.986H752.986H752.986H752.986H752.986H752.985H752.985H752.985H752.985H752.985H752.985H752.985H752.985H752.985H752.985H752.985H752.984H752.984H752.984H752.984H752.984H752.984H752.984H752.984H752.984H752.984H752.984H752.983H752.983H752.983H752.983H752.983H752.983H752.983H752.983H752.983H752.982H752.982H752.982H752.982H752.982H752.982H752.982H752.982H752.982H752.982H752.981H752.981H752.981H752.981H752.981H752.981H752.981H752.981H752.981H752.98H752.98H752.98H752.98H752.98H752.98H752.98H752.98H752.98H752.979H752.979H752.979H752.979H752.979H752.979H752.979H752.979H752.979H752.978H752.978H752.978H752.978H752.978H752.978H752.978H752.978H752.977H752.977H752.977H752.977H752.977H752.977H752.977H752.977H752.977H752.976H752.976H752.976H752.976H752.976H752.976H752.976H752.975H752.975H752.975H752.975H752.975H752.975H752.975H752.975H752.974H752.974H752.974H752.974H752.974H752.974H752.974H752.974H752.973H752.973H752.973H752.973H752.973H752.973H752.973H752.972H752.972H752.972H752.972H752.972H752.972H752.972H752.972H752.971H752.971H752.971H752.971H752.971H752.971H752.971H752.97H752.97H752.97H752.97H752.97H752.97H752.97H752.969H752.969H752.969H752.969H752.969H752.969H752.968H752.968H752.968H752.968H752.968H752.968H752.968H752.967H752.967H752.967H752.967H752.967H752.967H752.967H752.966H752.966H752.966H752.966H752.966H752.966H752.965H752.965H752.965H752.965H752.965H752.965H752.965H752.964H752.964H752.964H752.964H752.964H752.964H752.963H752.963H752.963H752.963H752.963H752.963H752.962H752.962H752.962H752.962H752.962H752.962H752.961H752.961H752.961H752.961H752.961H752.961H752.96H752.96H752.96H752.96H752.96H752.96H752.959H752.959H752.959H752.959H752.959H752.959H752.958H752.958H752.958H752.958H752.958H752.957H752.957H752.957H752.957H752.957H752.957H752.956H752.956H752.956H752.956H752.956H752.956H752.955H752.955H752.955H752.955H752.955H752.954H752.954H752.954H752.954H752.954H752.954H752.953H752.953H752.953H752.953H752.953H752.952H752.952H752.952H752.952H752.952H752.951H752.951H752.951H752.951H752.951H752.951H752.95H752.95H752.95H752.95H752.95H752.949H752.949H752.949H752.949H752.949H752.948H752.948H752.948H752.948H752.948H752.947H752.947H752.947H752.947H752.947H752.946H752.946H752.946H752.946H752.946H752.945H752.945H752.945H752.945H752.945H752.944H752.944H752.944H752.944H752.944H752.943H752.943H752.943H752.943H752.943H752.942H752.942H752.942H752.942H752.942L751.734 608.824C748.817 608.808 741.259 608.734 733.462 608.395C725.642 608.054 717.658 607.448 713.84 606.386C709.137 605.065 705.428 601.204 704.173 596.298L704.173 596.298C703.153 592.32 702.574 586.418 702.248 581.006C701.922 575.607 701.849 570.737 701.833 568.837V567.154C701.849 565.254 701.922 560.383 702.248 554.984C702.574 549.573 703.153 543.671 704.173 539.694C705.446 534.767 709.156 530.907 713.839 529.605L713.839 529.605C717.656 528.543 725.641 527.937 733.462 527.596C741.258 527.256 748.814 527.183 751.733 527.167H754.259C757.016 527.182 763.913 527.248 771.239 527.542C771.239 527.542 771.239 527.542 771.239 527.542L773.837 527.655C773.837 527.655 773.837 527.655 773.838 527.655C781.237 528.006 788.556 528.602 792.151 529.605C796.854 530.926 800.563 534.787 801.817 539.693ZM742.914 549.48L742.162 549.042V549.912V586.079V586.949L742.914 586.51L773.914 568.427L774.654 567.995L773.914 567.563L742.914 549.48Z" stroke="black"/>
</g>
<g filter="url(#filter1_d_134_1520)">
<path d="M430.709 563.481L467 555.417L503.291 563.481C505.312 563.93 506.75 565.723 506.75 567.793V611.901C506.75 620.761 502.322 629.035 494.95 633.95L467 652.583L439.05 633.95C431.678 629.035 427.25 620.761 427.25 611.901V567.793C427.25 565.723 428.688 563.93 430.709 563.481ZM467 610.625L479.98 617.449L477.501 602.995L488.003 592.759L473.49 590.65L467 577.5L460.51 590.65L445.998 592.759L456.499 602.995L454.02 617.449L467 610.625Z" fill="#778CFF"/>
<path d="M480.473 617.365L478.038 603.17L488.352 593.117L489.077 592.41L488.074 592.264L473.822 590.193L467.448 577.279L467 576.37L466.552 577.279L460.178 590.193L445.926 592.264L444.923 592.41L445.649 593.117L455.962 603.17L453.527 617.365L453.356 618.363L454.252 617.892L467 611.19L479.747 617.892L480.644 618.363L480.473 617.365ZM430.817 563.969L467 555.929L503.183 563.969C504.975 564.368 506.25 565.957 506.25 567.793V611.901C506.25 620.594 501.905 628.712 494.672 633.534L467 651.982L439.328 633.534C432.095 628.712 427.75 620.594 427.75 611.901V567.793C427.75 565.957 429.025 564.368 430.817 563.969Z" stroke="black"/>
</g>
<g filter="url(#filter2_d_134_1520)">
<path d="M667 871.167C675.652 871.167 682.667 864.153 682.667 855.5C682.667 846.848 675.652 839.833 667 839.833C658.347 839.833 651.333 846.848 651.333 855.5C651.333 864.153 658.347 871.167 667 871.167ZM641.542 882.917C646.949 882.917 651.333 878.533 651.333 873.125C651.333 867.717 646.949 863.333 641.542 863.333C636.134 863.333 631.75 867.717 631.75 873.125C631.75 878.533 636.134 882.917 641.542 882.917ZM702.25 873.125C702.25 878.533 697.866 882.917 692.458 882.917C687.051 882.917 682.667 878.533 682.667 873.125C682.667 867.717 687.051 863.333 692.458 863.333C697.866 863.333 702.25 867.717 702.25 873.125ZM667 875.083C677.815 875.083 686.583 883.851 686.583 894.667V918.167H647.417V894.667C647.417 883.851 656.184 875.083 667 875.083ZM639.583 894.666C639.583 891.953 639.978 889.331 640.712 886.855L640.048 886.913C633.18 887.658 627.833 893.475 627.833 900.541V918.166H639.583V894.666ZM706.167 918.166V900.541C706.167 893.248 700.471 887.285 693.288 886.855C694.022 889.331 694.417 891.953 694.417 894.666V918.166H706.167Z" fill="#C2CAFF"/>
<path d="M682.167 855.5C682.167 863.876 675.376 870.667 667 870.667C658.624 870.667 651.833 863.876 651.833 855.5C651.833 847.124 658.624 840.333 667 840.333C675.376 840.333 682.167 847.124 682.167 855.5ZM650.833 873.125C650.833 878.257 646.673 882.417 641.542 882.417C636.41 882.417 632.25 878.257 632.25 873.125C632.25 867.994 636.41 863.833 641.542 863.833C646.673 863.833 650.833 867.994 650.833 873.125ZM701.75 873.125C701.75 878.257 697.59 882.417 692.458 882.417C687.327 882.417 683.167 878.257 683.167 873.125C683.167 867.994 687.327 863.833 692.458 863.833C697.59 863.833 701.75 867.994 701.75 873.125ZM667 875.583C677.539 875.583 686.083 884.127 686.083 894.667V917.667H647.917V894.667C647.917 884.127 656.46 875.583 667 875.583ZM628.333 900.541C628.333 893.757 633.449 888.166 640.034 887.418C639.414 889.73 639.083 892.16 639.083 894.666V917.666H628.333V900.541ZM705.667 900.541V917.666H694.917V894.666C694.917 892.159 694.586 889.728 693.966 887.416C700.549 888.165 705.667 893.756 705.667 900.541Z" stroke="black"/>
</g>
<defs>
<filter id="filter0_d_134_1520" x="701.333" y="526.667" width="107.329" height="86.6621" filterUnits="userSpaceOnUse" color-interpolation-filters="sRGB">
<feFlood flood-opacity="0" result="BackgroundImageFix"/>
<feColorMatrix in="SourceAlpha" type="matrix" values="0 0 0 0 0 0 0 0 0 0 0 0 0 0 0 0 0 0 127 0" result="hardAlpha"/>
<feOffset dx="4" dy="4"/>
<feComposite in2="hardAlpha" operator="out"/>
<feColorMatrix type="matrix" values="0 0 0 0 0 0 0 0 0 0 0 0 0 0 0 0 0 0 1 0"/>
<feBlend mode="normal" in2="BackgroundImageFix" result="effect1_dropShadow_134_1520"/>
<feBlend mode="normal" in="SourceGraphic" in2="effect1_dropShadow_134_1520" result="shape"/>
</filter>
<filter id="filter1_d_134_1520" x="427.25" y="555.417" width="83.5" height="101.167" filterUnits="userSpaceOnUse" color-interpolation-filters="sRGB">
<feFlood flood-opacity="0" result="BackgroundImageFix"/>
<feColorMatrix in="SourceAlpha" type="matrix" values="0 0 0 0 0 0 0 0 0 0 0 0 0 0 0 0 0 0 127 0" result="hardAlpha"/>
<feOffset dx="4" dy="4"/>
<feComposite in2="hardAlpha" operator="out"/>
<feColorMatrix type="matrix" values="0 0 0 0 0 0 0 0 0 0 0 0 0 0 0 0 0 0 1 0"/>
<feBlend mode="normal" in2="BackgroundImageFix" result="effect1_dropShadow_134_1520"/>
<feBlend mode="normal" in="SourceGraphic" in2="effect1_dropShadow_134_1520" result="shape"/>
</filter>
<filter id="filter2_d_134_1520" x="627.833" y="839.833" width="82.3333" height="82.3335" filterUnits="userSpaceOnUse" color-interpolation-filters="sRGB">
<feFlood flood-opacity="0" result="BackgroundImageFix"/>
<feColorMatrix in="SourceAlpha" type="matrix" values="0 0 0 0 0 0 0 0 0 0 0 0 0 0 0 0 0 0 127 0" result="hardAlpha"/>
<feOffset dx="4" dy="4"/>
<feComposite in2="hardAlpha" operator="out"/>
<feColorMatrix type="matrix" values="0 0 0 0 0 0 0 0 0 0 0 0 0 0 0 0 0 0 1 0"/>
<feBlend mode="normal" in2="BackgroundImageFix" result="effect1_dropShadow_134_1520"/>
<feBlend mode="normal" in="SourceGraphic" in2="effect1_dropShadow_134_1520" result="shape"/>
</filter>
</defs>
</svg>
