<svg width="421" height="271" viewBox="0 0 421 271" fill="none" xmlns="http://www.w3.org/2000/svg">
<path d="M319.411 108.371C321.318 109.311 323.407 109.824 325.533 109.874C325.652 109.861 325.768 109.823 325.872 109.765C325.977 109.706 326.069 109.627 326.143 109.532C326.217 109.438 326.272 109.329 326.304 109.214C326.335 109.098 326.344 108.977 326.328 108.858C326.152 107.465 324.582 108.659 320.229 106.648L320.45 105.012C320.56 104.548 320.008 103.797 319.411 104.018C318.814 104.239 318.66 104.946 318.483 106.228C318.306 107.51 318.218 107.775 319.411 108.371ZM88.7313 114.648C91.3906 113.925 93.8882 112.702 96.0906 111.046C96.9525 110.383 96.6652 108.836 96.4221 107.952C96.3528 107.722 96.2014 107.526 95.9968 107.402C95.7922 107.277 95.5488 107.233 95.3133 107.277C95.0778 107.32 94.8667 107.45 94.7206 107.639C94.5745 107.829 94.5036 108.066 94.5215 108.305C94.5634 108.784 94.6523 109.258 94.7867 109.72C89.549 113.543 87.5158 112.593 87.8252 114.14C87.8939 114.316 88.0218 114.463 88.1871 114.556C88.3524 114.649 88.5447 114.681 88.7313 114.648ZM82.7201 110.559C87.1401 110.559 85.6373 107.952 84.4439 108.349L82.7422 108.615C81.2836 101.697 82.4549 100.239 81.1952 100.194C81.0052 100.182 80.818 100.245 80.6735 100.368C80.5289 100.492 80.4386 100.668 80.4217 100.857C80.2656 103.59 80.4662 106.331 81.0184 109.012C81.2615 110.206 81.7035 110.559 82.7201 110.559ZM211.055 106.758C212.314 106.758 218.944 105.322 220.072 105.145C221.729 104.858 223.696 104.349 223.829 102.559C223.829 101.454 223.033 100.172 222.127 100.835C221.938 100.968 221.799 101.159 221.731 101.379C221.663 101.599 221.67 101.835 221.751 102.051C222.083 102.913 221.375 102.846 210.701 105.167C210.505 105.228 210.339 105.36 210.236 105.537C210.132 105.715 210.1 105.925 210.144 106.126C210.189 106.326 210.307 106.502 210.476 106.62C210.645 106.737 210.851 106.786 211.055 106.758ZM65.7031 52.6573C66.1893 53.2098 67.3827 52.6573 67.0291 51.8175C64.8191 46.4251 60.7527 40.4139 58.1891 34.4911C57.7913 33.5408 56.9957 31.9275 56.2222 31.8391C56.1253 31.8255 56.0265 31.8389 55.9368 31.8779C55.8471 31.9169 55.77 31.98 55.7139 32.0601C55.2277 32.7231 55.9349 34.5574 56.2664 35.3309C57.283 37.5188 62.2113 48.6572 65.7031 52.6573ZM137.351 43.3311C137.393 43.5037 137.479 43.6624 137.6 43.7914C137.722 43.9205 137.875 44.0155 138.045 44.0669C138.215 44.1183 138.395 44.1243 138.568 44.0844C138.741 44.0445 138.901 43.96 139.031 43.8394C140.855 42.178 142.513 40.3424 143.981 38.3586C150.611 59.5746 150.611 60.326 151.65 60.326C151.799 60.3219 151.945 60.2857 152.079 60.2201C152.213 60.1544 152.331 60.0608 152.425 59.9455C152.519 59.8302 152.588 59.6959 152.626 59.5519C152.663 59.4078 152.67 59.2573 152.644 59.1105C150.169 51.2871 147.561 43.6405 145.307 35.8392C145.257 35.6453 145.15 35.4707 145.001 35.3372C144.851 35.2038 144.666 35.1175 144.467 35.0892C144.269 35.0608 144.067 35.0917 143.886 35.178C143.705 35.2642 143.554 35.402 143.451 35.574C142.182 37.5702 140.7 39.4227 139.031 41.099C137.705 35.0436 134.611 21.209 134.611 21.209C134.555 20.9863 134.413 20.7948 134.216 20.6767C134.02 20.5586 133.784 20.5235 133.561 20.5792C133.338 20.6349 133.147 20.7767 133.029 20.9736C132.911 21.1705 132.876 21.4062 132.931 21.6289C133.683 25.0544 136.887 41.8062 137.351 43.3311ZM22.2324 158.295C15.1162 154.892 8.77346 151.4 1.48046 147.555C0.0660555 146.803 -0.906344 149.389 1.30366 149.986C7.67101 153.96 14.4606 157.214 21.5473 159.688C22.4313 159.931 23.0501 158.782 22.2324 158.295ZM27.89 107.266C28.0419 107.401 28.2313 107.486 28.4327 107.509C28.6342 107.533 28.8381 107.494 29.0171 107.399C30.4757 106.692 28.5972 104.946 29.3044 94.4484C47.2275 116.084 46.233 115.532 46.9844 115.532C47.1399 115.542 47.2951 115.507 47.4314 115.431C47.5678 115.356 47.6797 115.243 47.7541 115.106C47.8284 114.969 47.862 114.813 47.8509 114.658C47.8398 114.502 47.7845 114.353 47.6916 114.228C44.8849 110.692 32.5973 95.4208 29.3265 91.266C29.2035 91.1102 29.0384 90.9928 28.8507 90.9279C28.6631 90.863 28.4608 90.8532 28.2678 90.8997C28.0748 90.9463 27.8991 91.0471 27.7617 91.1903C27.6242 91.3336 27.5307 91.5132 27.4922 91.708C27.0429 95.7441 26.9689 99.8132 27.2712 103.863C20.6412 97.9181 14.2985 91.6196 7.60216 85.8294C7.39943 85.6667 7.14585 85.5807 6.88598 85.5865C6.62612 85.5923 6.37661 85.6895 6.18132 85.861C5.98603 86.0326 5.85746 86.2674 5.81822 86.5244C5.77897 86.7813 5.83157 87.0439 5.96676 87.2659C8.57456 91.3102 23.2932 103.09 27.89 107.266ZM202.215 25.2975C202.215 25.5144 202.301 25.7224 202.454 25.8757C202.608 26.0291 202.816 26.1152 203.032 26.1152C203.249 26.1152 203.457 26.0291 203.611 25.8757C203.764 25.7224 203.85 25.5144 203.85 25.2975C204.229 17.1801 203.889 9.045 202.834 0.987516C202.811 0.774919 202.727 0.573486 202.592 0.407634C202.457 0.241782 202.277 0.118636 202.073 0.0531325C201.87 -0.0123708 201.652 -0.0174174 201.445 0.0385983C201.239 0.0946141 201.053 0.209288 200.911 0.368719C199.916 1.65052 202.303 5.69482 202.215 25.2975ZM262.017 63.6852C278.835 35.3088 277.929 36.7232 277.797 36.2149C277.421 34.9331 276.36 35.5519 267.852 38.1155C270.062 30.27 272.824 21.8941 274.659 13.9602C274.697 13.7037 274.637 13.4422 274.492 13.2271C274.347 13.012 274.127 12.859 273.875 12.798C273.623 12.7371 273.357 12.7726 273.13 12.8977C272.903 13.0228 272.731 13.2284 272.647 13.474C270.15 22.314 267.675 30.9551 265.288 39.4415C265.25 39.6169 265.256 39.7993 265.307 39.9714C265.359 40.1436 265.453 40.3 265.581 40.4259C265.709 40.5518 265.867 40.6431 266.04 40.6912C266.213 40.7394 266.395 40.7428 266.57 40.7012C266.57 40.7012 272.426 38.889 274.791 38.1155L260.669 62.9338C260.586 63.1111 260.573 63.3135 260.633 63.5001C260.693 63.6866 260.821 63.8435 260.993 63.9389C261.164 64.0343 261.365 64.0612 261.555 64.0141C261.745 63.967 261.91 63.8495 262.017 63.6852ZM420.032 128.505C418.883 127.952 397.623 141.168 397.402 141.323C396.628 141.875 397.402 143.245 398.198 142.825C399.479 142.251 419.789 130.958 420.474 129.742C420.527 129.632 420.557 129.512 420.563 129.39C420.569 129.269 420.551 129.147 420.51 129.032C420.469 128.917 420.406 128.811 420.324 128.72C420.242 128.63 420.143 128.557 420.032 128.505ZM363.766 103.244C363.766 103.244 385.07 87.0007 389.048 83.9067C389.91 83.2216 389.048 81.6967 388.032 81.8072C384.022 81.9028 380.028 82.354 376.098 83.1553C381.802 77.0696 386.854 70.4032 391.17 63.2653C391.899 62.0719 390.131 60.8343 389.424 62.0498C384.555 69.9922 378.761 77.3291 372.164 83.9067C371.457 84.5918 371.899 86.2714 373.048 86.1167C376.949 85.1234 380.926 84.4581 384.938 84.1277C384.938 84.1277 368.053 97.7192 362.838 102.029C362.75 102.17 362.707 102.334 362.715 102.5C362.723 102.666 362.781 102.825 362.882 102.957C362.983 103.089 363.121 103.187 363.279 103.238C363.437 103.29 363.607 103.292 363.766 103.244ZM333.29 39.2647C346.859 15.8829 349.224 12.4795 346.948 11.9049C345.975 11.6618 346.019 11.7502 331.765 38.4249C331.698 38.6215 331.703 38.8354 331.778 39.0291C331.853 39.2228 331.993 39.3838 332.175 39.484C332.357 39.5842 332.569 39.6171 332.773 39.577C332.976 39.5369 333.159 39.4264 333.29 39.2647Z" fill="black"/>
<path d="M395.921 183.512C386.905 155.069 364.119 133.19 333.356 123.51C333.336 122.947 333.277 122.386 333.179 121.831C341.577 118.162 343.456 105.543 341.599 94.5593C343.213 91.9294 347.5 78.4042 344.34 80.2606L338.572 83.664C337.754 81.454 336.804 79.3987 335.787 77.3655C336.008 73.8295 332.782 67.5089 327.102 63.3762C321.886 59.575 312.914 56.1716 299.83 61.6082C289.62 65.8514 278.106 75.2218 276.36 88.8354C274.15 106.515 280.007 115.09 269.067 131.51C256.98 126.037 244.095 122.531 230.901 121.123C230.901 120.133 230.835 119.144 230.702 118.162C236.337 115.311 237.531 106.029 237.774 103.001C244.404 97.2555 245.177 85.8077 239.984 85.5425C241.318 77.3412 241.829 69.0271 241.509 60.7242C241.221 55.5749 239.011 54.4257 237.995 54.2047C237.277 54.069 236.536 54.138 235.856 54.4037C235.176 54.6695 234.585 55.1213 234.149 55.7075C232.492 52.3262 229.309 52.7461 227.519 55.3097C227.344 54.3998 226.886 53.5682 226.212 52.9324C225.538 52.2966 224.681 51.8888 223.762 51.7666C222.844 51.6445 221.91 51.8141 221.093 52.2516C220.276 52.6891 219.617 53.3723 219.21 54.2047C218.781 53.2923 218.091 52.5279 217.227 52.0086C216.363 51.4894 215.365 51.2387 214.358 51.2884C213.351 51.3382 212.382 51.6861 211.573 52.288C210.765 52.8899 210.154 53.7186 209.817 54.6688C207.607 49.8731 201.972 50.9781 200.712 55.8401C199.054 52.1052 194.524 52.1273 192.955 56.4589C188.822 53.4091 185.573 56.4589 184.91 61.4756C184.509 70.006 184.864 78.5553 185.971 87.0232C178.479 85.3436 184.314 102.891 188.778 103.311C189.551 109.941 192.292 117.234 197.618 119.002C197.618 119.886 197.485 120.792 197.485 121.676C183.196 123.958 169.445 128.834 156.91 136.063C150.015 131.201 134.677 124.593 119.936 125.809C117.266 120.166 115.256 114.233 113.947 108.129C112.975 102.803 115.472 100.703 115.45 96.1063C118.312 90.3399 119.025 83.7426 117.461 77.4981C110.5 55.3981 68.4435 63.7961 69.6369 88.0619C69.7916 90.8244 70.0347 93.5869 70.2778 95.7306C65.0843 97.2997 65.8578 97.6754 67.2943 103.996C68.0678 107.444 68.9518 110.294 72.5762 109.543C74.2337 116.726 78.4106 128.195 88.2672 128.195C88.8639 128.195 88.2672 127.82 88.8197 131.533C64.0898 142.295 33.0393 162.473 24.9949 197.833C23.0501 206.363 21.8788 218.474 27.448 227.623C33.5697 237.811 44.3987 238.452 52.1779 237.944C50.357 247.949 49.7706 258.14 50.432 268.287C50.436 268.429 50.4789 268.567 50.556 268.686C50.6331 268.805 50.7415 268.901 50.8692 268.962C50.997 269.024 51.1392 269.049 51.2804 269.035C51.4215 269.022 51.5562 268.969 51.6696 268.884C52.863 268.177 50.5204 267.425 54.2553 237.789C75.0735 235.867 94.9193 226.916 113.262 217.502C116.29 219.712 119.296 221.922 122.412 223.911C124.974 229.091 128.9 233.474 133.767 236.59C138.635 239.705 144.26 241.434 150.037 241.591C149.484 250.894 149.484 260.222 150.037 269.525C150.045 269.637 150.076 269.747 150.127 269.847C150.179 269.948 150.25 270.037 150.337 270.109C150.423 270.181 150.524 270.235 150.631 270.268C150.739 270.3 150.853 270.311 150.965 270.298C152.865 270.122 150.412 269.171 151.915 241.568C170.302 241.568 185.397 229.568 200.535 220.397C218.348 228.552 262.017 243.734 285.112 239.358C286.173 248.773 286.018 257.701 286.924 266.807C286.953 266.97 287.039 267.118 287.166 267.224C287.294 267.331 287.454 267.389 287.62 267.389C287.786 267.389 287.947 267.331 288.074 267.224C288.201 267.118 288.287 266.97 288.316 266.807C288.897 257.503 288.519 248.165 287.189 238.939C303.212 235.137 313.046 223.844 315.654 206.297C316.715 205.59 317.864 204.794 319.058 203.888C332.737 209.347 361.047 222.629 374.882 223.115C374.241 233.391 373.335 244.243 373.18 254.895C373.211 255.075 373.305 255.238 373.444 255.356C373.584 255.473 373.76 255.538 373.943 255.538C374.125 255.538 374.302 255.473 374.442 255.356C374.581 255.238 374.675 255.075 374.705 254.895C375.015 251.955 377.026 226.872 376.915 223.049C399.059 222.54 402.551 204.418 395.921 183.512ZM238.216 89.0564C238.812 88.2608 239.144 87.3326 240.006 87.5978C243.1 88.5039 240.625 96.1947 238.039 99.6202C238.26 96.1063 238.326 92.5482 238.216 89.0564ZM185.463 89.0564C186.17 89.0564 186.082 89.3658 187.673 89.6752L188.557 100.593C185.286 97.5649 182.921 89.1006 185.463 89.1006V89.0564ZM339.014 86.8464C339.108 86.5357 339.321 86.275 339.607 86.1217C339.893 85.9684 340.228 85.9349 340.539 86.0287C340.849 86.1224 341.11 86.3358 341.263 86.6218C341.417 86.9077 341.45 87.2429 341.356 87.5536C340.583 90.294 339.986 92.283 339.478 94.1836C339.347 94.4201 339.163 94.623 338.941 94.7764C338.719 94.9298 338.464 95.0295 338.196 95.0676C336.251 95.1339 338.329 88.8354 339.014 86.8022V86.8464ZM301.819 95.6864C303.079 94.7361 304.604 95.9516 304.847 95.9737C306.925 97.2997 309.267 95.377 308.671 94.8245L308.229 94.4709C306.593 93.1891 303.234 90.5371 303.941 88.7249C304.471 87.3547 306.637 87.5536 308.052 87.4873C308.102 87.4857 308.151 87.4728 308.196 87.4495C308.24 87.4261 308.279 87.393 308.309 87.3526C308.338 87.3121 308.359 87.2654 308.368 87.216C308.377 87.1666 308.375 87.1158 308.361 87.0674C308.14 86.3602 307.875 85.653 307.61 84.8574C315.962 80.7151 325.119 78.4521 334.439 78.2274C335.389 80.4374 336.207 82.5369 336.936 84.6143C334.174 86.1834 331.036 87.9072 330.306 91.0454C329.65 90.9638 328.983 91.0306 328.356 91.241C327.729 91.4514 327.157 91.7999 326.682 92.2609C323.212 88.084 308.847 88.4376 305.952 88.5481C302.217 88.7028 312.074 96.2389 314.792 98.3605C323.919 105.455 329.886 100.57 327.61 94.0952C327.929 93.7039 328.349 93.4067 328.824 93.2354C329.298 93.0641 329.811 93.0252 330.306 93.1228C330.389 93.5427 330.522 93.9509 330.704 94.3383C330.594 94.2837 330.473 94.2554 330.351 94.2554C330.228 94.2554 330.107 94.2837 329.997 94.3383C329.091 94.9129 329.997 95.6864 332.074 99.3771C331.818 99.6377 331.545 99.8813 331.257 100.106C330.417 100.725 331.146 103.421 333.953 100.106C334.373 99.5981 333.577 98.1174 332.693 96.8135C333.76 97.5406 335.039 97.8918 336.327 97.8118C337.616 97.7317 338.841 97.225 339.809 96.3715C340.775 102.305 340.228 108.386 338.218 114.051C336.008 119.466 330.461 119.775 331.588 121.831C331.88 129.117 331.286 136.412 329.82 143.555C324.14 142.317 312.958 128.461 308.494 122.03C308.956 116.656 308.263 111.245 306.461 106.162C304.98 103.598 302.04 102.427 301.267 99.5318C300.965 98.8861 300.857 98.1669 300.955 97.461C301.053 96.7551 301.353 96.0927 301.819 95.5538V95.6864ZM335.323 91.9957C335.08 92.725 334.925 93.7416 334.13 93.7416C333.334 93.7416 332.936 92.8134 333.025 92.0178C333.113 91.2222 333.334 89.3879 334.174 88.9017C334.335 88.8218 334.513 88.7802 334.693 88.7802C334.873 88.7802 335.051 88.8218 335.213 88.9017C336.251 89.189 335.699 90.736 335.323 91.8631V91.9957ZM323.411 97.0787C323.168 97.6754 322.925 98.7583 322.218 99.0898C322.094 99.1503 321.958 99.1818 321.82 99.1818C321.682 99.1818 321.546 99.1503 321.422 99.0898C320.096 98.6036 321.555 93.6753 322.748 92.725C322.852 92.6189 322.982 92.5408 323.124 92.4979C323.266 92.4551 323.417 92.4487 323.562 92.4796C323.708 92.5104 323.843 92.5774 323.956 92.6744C324.068 92.7714 324.155 92.8952 324.207 93.0344C324.671 94.051 323.544 96.6146 323.411 96.9461V97.0787ZM318.571 94.935C318.284 95.5096 318.151 96.04 317.4 96.04C317.223 96.0522 317.046 96.0209 316.884 95.9488C316.722 95.8767 316.581 95.766 316.472 95.6263C316.363 95.4867 316.289 95.3224 316.259 95.148C316.228 94.9735 316.24 94.7941 316.295 94.6256C316.538 93.8963 316.803 92.2388 317.687 91.7968C317.827 91.732 317.979 91.6968 318.133 91.6931C318.288 91.6895 318.441 91.7175 318.584 91.7755C318.727 91.8335 318.856 91.9203 318.964 92.0304C319.073 92.1405 319.157 92.2716 319.212 92.4156C319.522 93.1449 319.013 94.1394 318.571 94.935ZM307.521 123.267C313.798 134.096 330.328 149.787 331.61 144.527C333.056 138.284 333.724 131.885 333.599 125.477C363.876 136.174 384.429 155.776 393.38 182.23C386.901 179.138 379.782 177.623 372.606 177.81C372.296 170.539 362.329 156.483 358.506 152.262C357.733 151.4 356.296 152.505 357.136 153.367C362.868 159.859 367.255 167.423 370.042 175.622C359.213 167.467 337.401 156.086 307.499 165.456C299.742 152.215 288.415 141.424 274.813 134.317C284.601 127.916 295.857 124.113 307.521 123.267ZM192.27 73.4096C205.56 69.7821 219.524 69.3806 233 72.2383C232.773 75.9835 232.892 79.7416 233.354 83.4651H232.956C231.122 75.0229 219.364 72.4151 215.408 81.2551C213.388 80.5697 211.197 80.5697 209.176 81.2551C205.353 73.2991 194.281 75.8627 192.248 83.7303H191.828C192.292 80.311 192.44 76.8561 192.27 73.4096ZM222.326 91.5979C222.724 90.4708 226.304 82.117 228.624 81.8739C228.817 81.8714 229.008 81.915 229.181 82.0011C229.354 82.0872 229.504 82.2132 229.619 82.3687C229.733 82.5242 229.809 82.7048 229.84 82.8955C229.87 83.0861 229.855 83.2814 229.796 83.4651C227.823 86.2754 226.065 89.2305 224.536 92.3051C223.983 93.6753 221.817 93.1449 222.326 91.5979ZM219.121 88.5039C218.856 89.1669 217.663 89.5647 217.243 88.7912C216.823 88.0177 217.839 85.0784 220.712 80.7689C221.442 79.686 222.127 79.1556 222.724 79.244C222.918 79.2994 223.095 79.4016 223.241 79.5415C223.387 79.6814 223.496 79.8548 223.559 80.0466C223.622 80.2384 223.638 80.4428 223.604 80.6419C223.57 80.841 223.488 81.0287 223.364 81.1888C221.683 83.4618 220.259 85.9153 219.121 88.5039ZM199.894 92.1725C200.845 90.0951 201.905 87.9956 202.922 85.9403C203.03 85.742 203.19 85.5766 203.385 85.4614C203.579 85.3462 203.801 85.2854 204.027 85.2854C204.253 85.2854 204.475 85.3462 204.669 85.4614C204.864 85.5766 205.023 85.742 205.132 85.9403C205.271 86.15 205.345 86.396 205.345 86.6475C205.345 86.899 205.271 87.1449 205.132 87.3547C204.16 89.2774 203.165 91.2885 202.104 93.2333C201.264 94.3383 199.231 93.4985 199.894 92.1725ZM197.22 89.3879L197.088 89.5426C196.402 90.5371 194.679 89.8962 195.143 88.6365C196.419 85.2409 198.048 81.9891 200.005 78.9346C200.955 77.7854 202.878 78.7799 202.215 80.128C200.646 83.2662 198.723 86.2055 197.22 89.3879ZM189.33 89.5868C190.745 88.9901 191.143 87.3768 191.54 85.9845L192.005 85.8519C191.889 87.3851 192.077 88.926 192.559 90.3862C193.04 91.8464 193.806 93.197 194.811 94.3604C196.003 95.5309 197.497 96.3473 199.126 96.7185C200.755 97.0897 202.455 97.001 204.036 96.4624C205.618 95.9238 207.018 94.9564 208.082 93.6682C209.146 92.38 209.831 90.8216 210.06 89.1669C209.832 91.2952 209.736 93.4356 209.773 95.5759C209.773 96.9019 209.464 98.5594 211.099 98.6699H213.309C214.458 98.6699 214.768 96.6809 213.442 96.6588H211.806C211.677 92.7212 211.892 88.7798 212.447 84.8795C212.602 83.7966 211.033 83.6419 210.812 84.6585C209.839 89.41 210.812 86.6917 209.95 83.1778C211.493 82.6245 213.18 82.6245 214.723 83.1778C214.237 84.9496 214.141 86.8059 214.442 88.6184C214.744 90.4309 215.435 92.1563 216.469 93.6753C217.257 94.6955 218.254 95.5346 219.395 96.1356C220.535 96.7367 221.791 97.0857 223.077 97.1591C224.364 97.2324 225.652 97.0284 226.853 96.5608C228.054 96.0931 229.14 95.3729 230.039 94.4488C232.21 92.026 233.365 88.8605 233.265 85.6088H233.685C233.95 87.5315 234.348 90.1835 236.381 90.0288C236.16 97.587 236.823 110.538 230.834 115.267C230.061 115.886 229.177 116.593 229.066 117.3C228.79 119.642 228.79 122.008 229.066 124.35C229.707 130.472 218.989 142.583 213.442 147.754C202.745 133.212 199.673 131.776 199.695 119.024C199.695 117.742 199.541 117.543 198.657 117.101C189.706 112.77 190.524 100.283 189.33 89.5868ZM197.596 123.621C197.839 130.405 203.165 139.577 212.558 149.456C214.458 151.931 231.254 131.312 230.923 126.847V123.112C276.161 128.439 308.582 154.472 313.754 189.567C294.969 185.876 271.233 190.208 267.211 190.982C265.486 179.991 262.235 169.294 257.553 159.202C257.474 159.005 257.32 158.849 257.125 158.766C256.931 158.683 256.711 158.681 256.514 158.76C256.318 158.839 256.161 158.993 256.078 159.188C255.995 159.382 255.993 159.602 256.072 159.798C260.136 169.759 263.1 180.134 264.912 190.738C253.288 178.495 235.608 173.058 210.966 174.163C196.134 174.851 181.401 176.945 166.965 180.418C168.12 173.678 170.871 167.313 174.988 161.854C175.078 161.689 175.105 161.497 175.064 161.314C175.024 161.131 174.918 160.969 174.766 160.858C174.615 160.747 174.428 160.695 174.241 160.711C174.054 160.728 173.88 160.812 173.75 160.948C169.106 166.685 166.057 173.546 164.91 180.838C148.887 184.681 133.327 190.246 118.5 197.435C120.533 154.141 160.556 130.936 197.596 123.621ZM101.748 82.6916C101.726 84.7899 101.851 86.8873 102.124 88.968C94.1679 89.1669 81.5267 92.2609 72.1121 95.1781C71.869 93.2333 71.3165 89.6973 71.2944 87.5978C80.7674 83.083 91.3366 81.3802 101.748 82.6916ZM94.7204 94.5593C90.3004 102.073 91.2507 103.399 89.77 103.399C89.6038 103.409 89.4377 103.379 89.2855 103.312C89.1334 103.244 88.9997 103.141 88.8957 103.011C88.7917 102.881 88.7205 102.728 88.688 102.565C88.6556 102.402 88.6628 102.233 88.7092 102.073C90.7203 94.4709 92.643 93.0565 93.6154 92.8797C93.8274 92.8365 94.0474 92.8578 94.2472 92.9408C94.4469 93.0239 94.6172 93.1649 94.7361 93.3456C94.855 93.5263 94.9171 93.7385 94.9143 93.9548C94.9115 94.1712 94.8439 94.3817 94.7204 94.5593ZM87.8915 96.2168C87.0738 97.5649 86.8749 99.4434 85.6815 99.1561C84.4881 98.8688 85.35 96.1726 86.0572 94.7361C86.7644 93.2996 87.3832 93.2775 87.8031 93.388C88.0397 93.4523 88.2502 93.5893 88.4048 93.7796C88.5594 93.9699 88.6504 94.204 88.665 94.4488C88.5784 95.0991 88.3103 95.7118 87.8915 96.2168ZM71.4491 100.637C71.206 101.211 71.1839 102.979 69.9905 102.979C69.7582 102.988 69.5297 102.919 69.3414 102.783C69.1531 102.647 69.0159 102.451 68.9518 102.228C68.8348 100.682 69.3265 99.1514 70.322 97.9627C70.5273 97.7792 70.7854 97.6654 71.0593 97.6376C71.3332 97.6098 71.6089 97.6694 71.8469 97.808C72.3773 98.1616 72.2668 99.0898 71.4491 100.57V100.637ZM72.2668 105.786C74.2779 98.5594 75.4271 97.4986 76.1122 97.3439C76.253 97.3114 76.4001 97.319 76.5368 97.3659C76.6736 97.4128 76.7944 97.497 76.8857 97.6091C77.1861 97.9573 77.337 98.4099 77.3056 98.8688L74.3884 106.405C74.2975 106.686 74.0986 106.92 73.8355 107.055C73.5723 107.189 73.2664 107.214 72.985 107.123C72.7037 107.032 72.47 106.833 72.3353 106.57C72.2006 106.307 72.1759 106.001 72.2668 105.72V105.786ZM74.4768 109.123C78.72 107.886 80.0902 108.239 79.6261 101.786C79.4714 99.9517 79.1178 95.7748 80.9742 95.8411C82.477 95.8411 82.5212 102.825 84.7533 104.99C86.9854 107.156 89.8805 105.631 92.3115 104.99C98.9415 103.178 97.4829 100.349 96.9967 91.5758L102.566 91.1338C105.063 104.084 108.422 94.3825 110.677 92.9239C112.113 92.0178 113.351 94.0068 113.616 95.5317C114.124 98.8025 111.406 102.383 111.98 107.178C113.283 114.12 115.513 120.854 118.61 127.201C113.771 136.395 99.8697 144.881 93.6817 148.24C91.0739 138.781 90.8529 126.361 89.2617 126.405C81.9245 126.45 77.1067 120.902 74.3884 109.057L74.4768 109.123ZM89.0186 133.654C89.4164 136.991 91.0518 151.334 93.4386 150.141C99.4498 147.312 117.749 135.29 120.356 127.555C124.224 128.439 136.29 126.096 155.031 137.389C141.202 145.65 130.105 157.792 123.119 172.307C105.24 170.097 83.1179 167.335 64.5318 177.147C70.2115 163.754 73.6149 162.428 72.0016 161.368C71.9181 161.31 71.8239 161.271 71.7246 161.251C71.6254 161.231 71.5232 161.232 71.4241 161.252C71.3251 161.273 71.2312 161.313 71.1481 161.371C71.0651 161.429 70.9945 161.503 70.9408 161.589C70.3662 162.45 62.2997 175.777 62.1008 178.495C58.9847 180.396 52.3326 185.258 50.3436 189.081C42.2189 189.239 34.3017 191.674 27.4922 196.109C34.2106 170.097 55.4487 148.505 88.9302 133.588L89.0186 133.654ZM31.7133 230.165C23.2711 221.325 25.0833 206.54 26.8292 198.429C48.3988 184.263 76.9078 190.319 111.605 216.463C99.936 221.457 48.9513 248.044 31.7133 230.165ZM52.5757 189.037C70.1231 169.611 95.4939 170.848 122.213 174.141C115.362 189.943 114.765 206.628 120.489 220.242C100.599 205.347 77.1067 188.97 52.5757 188.97V189.037ZM151.76 239.867C129.992 239.867 118.301 220.75 118.61 199.534C149.55 185.633 176.579 178.517 206.193 176.462C233.243 174.583 251.454 179.512 263.388 191.932C205.088 204.993 181.021 239.8 151.76 239.8V239.867ZM285.421 237.436C263.785 242.32 227.961 229.546 202.502 219.358C243.078 195.402 279.587 186.363 314.041 191.733C316.759 216.419 306.593 232.64 285.421 237.436ZM316.074 203.976C317.221 191.197 314.52 178.367 308.317 167.136C332.052 160.992 352.097 164.572 369.512 178.053C346.638 179.755 323.588 197.612 316.052 203.976H316.074ZM376.186 221.148C362.661 221.148 334.196 207.888 321.091 202.54C335.102 191.932 351.699 180.683 371.678 179.887C379.482 179.405 387.266 181.112 394.153 184.816C400.076 204.794 397.115 221.015 376.164 221.148H376.186Z" fill="black"/>
</svg>
