<svg width="1464" height="466" viewBox="0 0 1464 466" fill="none" xmlns="http://www.w3.org/2000/svg">
<path d="M1014.5 465V465.5H1015H1463H1463.5V465V329.17V329.118L1463.49 329.068C1461.31 318.648 1460.74 304.864 1460.11 289.959C1459.88 284.539 1459.65 278.972 1459.33 273.364C1458.14 252.388 1455.75 230.882 1447.95 214.782C1432.63 183.143 1366.71 133.055 1208.34 187.527C1176.78 198.382 1149.6 197.832 1126.42 189.514C1103.23 181.193 1084 165.083 1068.39 144.743C1037.15 104.052 1020.45 46.5136 1015.5 0.945946L1014.5 1V465Z" fill="#173DFF" stroke="black"/>
<mask id="path-2-inside-1_134_1511" fill="white">
<path d="M0 0H1015V465H0V0Z"/>
</mask>
<path d="M0 0H1015V465H0V0Z" fill="#173DFF"/>
<path d="M0 1H1015V-1H0V1Z" fill="black" mask="url(#path-2-inside-1_134_1511)"/>
</svg>
