<svg width="71" height="70" viewBox="0 0 71 70" fill="none" xmlns="http://www.w3.org/2000/svg">
<path d="M12.0513 23.4116C13.6492 24.2031 15.2467 25.1607 16.587 26.4854C17.2473 27.149 17.8276 27.8857 18.3162 28.6808C18.7915 29.4632 19.1953 30.2857 19.5227 31.1386C20.2015 32.9314 20.5698 34.7861 20.8556 36.6035C20.9305 37.0544 20.998 37.5051 21.0616 37.9543L21.2446 39.2994L19.5775 39.504C19.3102 37.3884 19.1008 35.2143 19.2843 33.0089C19.459 30.8132 20.0443 28.5757 21.2317 26.616C21.5297 26.1233 21.8651 25.6535 22.235 25.2106C22.6058 24.7595 23.0179 24.343 23.4661 23.9663C23.5752 23.8672 23.6939 23.7813 23.8099 23.6916C23.9276 23.6043 24.0408 23.5096 24.1627 23.429C24.4058 23.2665 24.647 23.0988 24.9014 22.9576C25.4006 22.6647 25.921 22.4083 26.4583 22.1906C26.9859 21.9755 27.5252 21.7894 28.0738 21.6332C28.617 21.4836 29.1624 21.3453 29.7063 21.2371C30.7953 21.009 31.8774 20.8553 32.9444 20.7042L33.0496 22.6978L32.0988 22.6776C31.0657 22.6585 30.0232 22.6039 28.9727 22.5202C27.8974 22.444 26.8294 22.2884 25.7777 22.0546C24.669 21.8104 23.6065 21.3942 22.6301 20.8218C22.1256 20.5146 21.6592 20.1504 21.2404 19.7367C20.8232 19.3206 20.4601 18.8551 20.1594 18.3508C19.5654 17.3655 19.2011 16.3346 18.8897 15.343C18.5753 14.3452 18.3135 13.3321 18.1052 12.3077C17.8917 11.285 17.7393 10.2509 17.6486 9.21059C17.6049 8.69068 17.5709 8.17015 17.5545 7.64909L17.5423 7.25838C17.5392 7.12818 17.5425 6.9977 17.5314 6.86769C17.5163 6.60745 17.513 6.3468 17.5033 6.08616L19.2958 6.16982C19.1452 8.07151 18.9839 10.0057 18.6123 11.9494C18.5616 12.1919 18.5152 12.4354 18.4605 12.6774L18.2766 13.402L18.0666 14.1238L17.8277 14.8408C17.4892 15.804 17.0571 16.7326 16.5374 17.6137C15.5325 19.2794 14.1543 20.6963 12.5083 21.7557C11.8719 22.1776 11.1757 22.5042 10.4423 22.725C10.1744 22.8007 9.90093 22.8551 9.62433 22.8879C9.50107 22.9011 9.38491 22.9097 9.27585 22.9138L9.1953 22.9161L9.13012 22.908C9.08436 22.9018 9.04021 22.8959 8.99769 22.8902C8.47031 22.8142 8.17751 22.7237 8.58382 22.3299C8.6426 22.2753 8.70475 22.2243 8.76992 22.1772C8.804 22.1511 8.85215 22.1215 8.88287 22.0968C8.91142 22.0732 8.94124 22.0486 8.97233 22.023C9.09658 21.9214 9.2467 21.8222 9.41241 21.7047C9.57674 21.5844 9.76775 21.47 9.96834 21.3286C10.0701 21.2616 10.1765 21.1917 10.2874 21.1187C10.3962 21.0427 10.51 20.9656 10.629 20.8873C11.2445 20.4711 11.8317 20.0156 12.3869 19.5237C12.9539 19.0293 13.4814 18.4926 13.9647 17.9182C14.6235 17.1261 15.1772 16.2545 15.6125 15.3244C16.0525 14.3745 16.4026 13.3866 16.6583 12.3732C17.2071 10.3308 17.4553 8.18249 17.6882 6.01719L17.6883 6.01596C17.7077 5.83657 17.7959 5.67127 17.9349 5.55391C18.0739 5.43655 18.2531 5.37601 18.4359 5.3847C18.6186 5.39339 18.7911 5.47065 18.918 5.60065C19.0449 5.73064 19.1165 5.90355 19.1183 6.08395C19.1215 6.43522 19.1098 6.78717 19.1347 7.13815C19.1573 7.489 19.1841 7.83942 19.2201 8.18893C19.289 8.88823 19.3913 9.58333 19.5082 10.2748C19.7393 11.6568 20.0781 13.0193 20.5215 14.35C20.8051 15.2601 21.1735 16.1423 21.622 16.9855C21.833 17.3665 22.0816 17.7261 22.3644 18.0588C22.6403 18.3715 22.946 18.6574 23.2772 18.9127C23.5881 19.142 23.9181 19.345 24.2638 19.5193C24.6254 19.6948 24.9986 19.846 25.381 19.9718C26.1811 20.2236 27.0033 20.401 27.8369 20.5017C29.5443 20.7208 31.3189 20.7528 33.1036 20.8177L33.1141 20.8181C33.3377 20.8262 33.55 20.9169 33.709 21.0722C33.8679 21.2274 33.9618 21.4359 33.9722 21.6563C33.9825 21.8766 33.9084 22.0928 33.7646 22.2618C33.6209 22.4308 33.4179 22.5404 33.196 22.5688C31.841 22.7422 30.5077 22.9236 29.2264 23.2179C27.9503 23.5186 26.7146 23.9127 25.6234 24.5313C25.1579 24.7935 24.7184 25.098 24.3106 25.4411C23.9054 25.7918 23.5341 26.179 23.2017 26.5977C22.5381 27.4634 22.0164 28.4264 21.6556 29.4516C21.2864 30.4919 21.0482 31.5729 20.9465 32.6704C20.8406 33.786 20.8171 34.9078 20.8761 36.0267C20.9234 37.116 21.0358 38.2118 21.1662 39.3115L21.167 39.3188C21.1904 39.516 21.1334 39.7143 21.0087 39.8702C20.884 40.0261 20.7017 40.1269 20.5017 40.1504C20.3017 40.174 20.1004 40.1184 19.942 39.9959C19.7835 39.8734 19.6807 39.6939 19.6563 39.4968C19.4373 37.7306 19.2062 35.9795 18.7921 34.2915C18.5975 33.4514 18.3489 32.6243 18.0478 31.8153C17.7472 31.0206 17.3714 30.2556 16.9253 29.5304C16.8083 29.3551 16.6996 29.1732 16.5764 29.0024L16.1959 28.4983C15.9282 28.1739 15.6436 27.8635 15.3431 27.5684C14.7212 26.9808 14.0397 26.4578 13.3094 26.0077C12.9416 25.7775 12.5624 25.5604 12.1752 25.3535C11.9816 25.2501 11.7861 25.1491 11.5887 25.0504L11.2915 24.9038L11.1429 24.832L11.0017 24.7696C10.8175 24.6823 10.6155 24.6117 10.4191 24.5352C10.2149 24.4696 10.0152 24.395 9.80551 24.3385C9.39276 24.2119 8.96655 24.1159 8.54062 24.0249C7.71451 23.8551 6.87633 23.7484 6.03357 23.7057C5.21673 23.6661 4.41069 23.7135 3.74078 23.9422L3.54823 23.1869L3.5476 23.137H3.54837H3.55308H3.55939H3.57201L3.59724 23.1372C3.61362 23.1375 3.63039 23.1379 3.65396 23.1367L3.78431 23.1325L4.04946 23.1217C4.2273 23.1139 4.40413 23.1061 4.57994 23.0983C4.93294 23.0845 5.28163 23.0708 5.62601 23.0573C6.3159 23.0327 6.98944 23.018 7.64751 23.0043C7.87141 22.996 8.09563 23.0046 8.31819 23.0301C8.40451 23.0369 8.4561 23.0625 8.53571 23.0623C8.58753 23.0608 8.63856 23.0751 8.68197 23.103L8.81261 22.9527C8.79415 23.0213 8.76859 23.0515 8.78077 23.0577C8.78909 23.0638 8.83444 23.0444 8.87591 22.9788C8.88092 22.9709 8.88411 22.962 8.88523 22.9528C8.88635 22.9436 8.88539 22.9342 8.88241 22.9253C8.87943 22.9165 8.8745 22.9084 8.86798 22.9017C8.86147 22.895 8.85352 22.8897 8.84471 22.8864C8.8359 22.883 8.82645 22.8816 8.81703 22.8823C8.80762 22.883 8.79847 22.8857 8.79024 22.8903C8.78201 22.8948 8.7749 22.9011 8.76944 22.9087C8.76397 22.9163 8.76027 22.925 8.7586 22.9341L8.71791 23.1608C8.71034 23.2027 8.65293 23.2667 8.54636 23.3379C8.47237 23.3974 8.3918 23.4484 8.30618 23.4899C8.04228 23.6172 7.76395 23.7129 7.47707 23.7752C6.8556 23.9162 6.22971 24.0408 5.59452 24.1592C5.27711 24.2182 4.95749 24.275 4.63568 24.3296L4.14862 24.4091L3.89831 24.4469L3.76803 24.4651C3.71908 24.4715 3.64591 24.4779 3.58576 24.4831C3.37027 24.5013 3.15509 24.4447 2.97748 24.3231C2.79988 24.2014 2.67105 24.0223 2.61331 23.8168C2.55557 23.6113 2.57257 23.3923 2.66135 23.1979C2.75013 23.0035 2.9051 22.8458 3.09942 22.7521L3.16155 22.7226C3.66207 22.493 4.19374 22.3361 4.73995 22.257C4.99295 22.2267 5.25102 22.1877 5.49911 22.1788C5.62407 22.172 5.7503 22.162 5.87441 22.1588L6.24488 22.1559C7.22792 22.1655 8.20713 22.2783 9.16593 22.4924C9.65039 22.5955 10.1293 22.7224 10.6009 22.8727L10.9586 22.9904L11.3179 23.1252C11.4367 23.167 11.559 23.2239 11.6798 23.2756L11.8611 23.3548L12.0227 23.4316C12.032 23.4247 12.0407 23.4183 12.0513 23.4116Z" fill="black"/>
<path d="M54.5256 27.4983C55.3587 28.4831 56.0305 29.5902 56.5167 30.7796C56.5762 30.9285 56.6405 31.0753 56.6953 31.2259L56.8416 31.6846C56.888 31.8382 56.9426 31.9889 56.9815 32.1445L57.0887 32.6141C57.1214 32.7712 57.1658 32.9255 57.1879 33.0847L57.2541 33.5619L57.2866 33.8004C57.2977 33.8791 57.3085 33.9586 57.3141 34.0461C57.3272 34.2176 57.3339 34.3949 57.3294 34.5794C57.3249 34.911 57.2702 35.2401 57.1671 35.5559C57.1031 35.7398 57.0174 35.9157 56.9118 36.08C56.7942 36.2552 56.6517 36.4127 56.4886 36.5479L56.4771 36.5575C56.3421 36.6692 56.176 36.7381 56.0006 36.755C55.8252 36.772 55.6487 36.7362 55.4942 36.6525C55.3398 36.5688 55.2147 36.4409 55.1353 36.2858C55.0559 36.1307 55.0259 35.9555 55.0493 35.7833C55.1585 34.9854 55.3137 34.1943 55.514 33.4138C55.8399 32.1089 56.3449 30.854 57.015 29.6837C57.7016 28.4872 58.5989 27.4209 59.6649 26.5346C60.7562 25.6457 62.0167 24.9806 63.3723 24.5784C64.7649 24.1702 66.2373 24.102 67.6625 24.3796C67.8719 24.4222 68.0626 24.5278 68.2084 24.682C68.3542 24.8361 68.4478 25.031 68.4764 25.2399C68.5049 25.4488 68.4669 25.6612 68.3677 25.8478C68.2684 26.0345 68.1128 26.1862 67.9224 26.2818L67.9035 26.2912C67.4396 26.5172 66.9426 26.6697 66.4306 26.7433C65.9599 26.8084 65.4838 26.8271 65.0093 26.7991C64.5545 26.7769 64.1213 26.7237 63.7049 26.6649C63.2895 26.6047 62.8932 26.5461 62.4631 26.4686C61.8443 26.366 61.2388 26.1972 60.6572 25.965C60.3389 25.8333 60.0345 25.671 59.7484 25.4804C59.4563 25.2839 59.1867 25.0567 58.9443 24.803C58.4942 24.3167 58.1264 23.7621 57.855 23.1605C57.6037 22.6048 57.4064 22.0268 57.2658 21.4343C56.6984 19.1384 56.7464 16.7364 57.4049 14.4643L57.4059 14.4609C57.4635 14.2629 57.5787 14.0858 57.7371 13.9515C57.8955 13.8172 58.0904 13.7315 58.2976 13.7049C58.5048 13.6784 58.7154 13.7122 58.9034 13.8022C59.0913 13.8922 59.2485 14.0344 59.3555 14.2114C59.6911 14.7861 59.8727 15.4356 59.8833 16.0987C59.8942 16.68 59.8212 17.2598 59.6666 17.8208C59.5982 18.0916 59.5096 18.3418 59.4252 18.5948C59.3309 18.8443 59.239 19.0951 59.127 19.337C58.9134 19.8248 58.6629 20.2959 58.3776 20.7466C57.2438 22.5667 55.6002 24.0246 53.645 24.9446C52.4012 25.5194 51.0505 25.8352 49.6773 25.8723C49.1385 25.8907 48.6005 25.8179 48.0866 25.6569C47.9824 25.6225 47.885 25.587 47.7941 25.5496C47.7035 25.5085 47.6193 25.4666 47.5417 25.4238C47.3995 25.3488 47.2672 25.2569 47.1478 25.15C46.8338 24.8711 46.8935 24.6465 47.2054 24.4997C47.5185 24.356 48.0842 24.2801 48.8528 24.2041L49.2211 24.1649L49.5937 24.1158C49.843 24.0783 50.0957 24.0471 50.3473 24.0006C50.8496 23.913 51.3462 23.796 51.8344 23.6501C52.7765 23.3612 53.661 22.9142 54.4489 22.3287C56.0411 21.1487 57.1975 19.4872 57.7414 17.598C57.8713 17.1676 57.9372 16.7208 57.9371 16.2718C57.9429 15.9011 57.842 15.5365 57.646 15.2201L59.3208 15.003C59.1502 15.6714 59.0436 16.354 59.0024 17.042C58.9226 18.3123 59.0983 19.6185 59.3201 20.8187C59.4738 21.674 59.743 22.4837 60.1805 23.1062C60.3865 23.4055 60.6475 23.6641 60.9501 23.8687C61.2801 24.0755 61.6396 24.2327 62.0166 24.3349C62.4466 24.452 62.8833 24.5435 63.3244 24.6089C63.7945 24.6838 64.2623 24.759 64.7026 24.8033C65.5881 24.8973 66.4038 24.8617 67.0275 24.5604L67.243 26.2694L66.9338 26.2115L66.7794 26.1815L66.6226 26.1633L66.3089 26.1258L65.9921 26.1101C65.2719 26.0831 64.5518 26.1663 63.8574 26.3567C63.1504 26.5523 62.4726 26.8386 61.8412 27.2084C61.2059 27.5787 60.6195 28.0251 60.0954 28.5374C59.5661 29.0574 59.096 29.6329 58.6935 30.2535C57.5881 31.9373 56.9361 33.9311 56.6654 35.9688L55.4425 35.3192C55.5154 35.2586 55.5706 35.1799 55.6022 35.0912C55.6531 34.9531 55.6821 34.808 55.6883 34.6612C55.6979 34.4787 55.693 34.2958 55.6736 34.1141L55.5857 33.5063C55.5556 33.3032 55.5139 33.1021 55.4609 32.9036L55.391 32.6031C55.3697 32.5023 55.3297 32.4065 55.3001 32.3077C55.2339 32.1124 55.1774 31.9135 55.1041 31.7203L54.864 31.147C54.5161 30.3895 54.0835 29.6727 53.5742 29.0099C53.0529 28.3515 52.4628 27.7489 51.8138 27.212C50.9941 26.5513 50.102 25.9832 49.1541 25.5183C49.0971 25.4889 49.0411 25.4572 48.9837 25.4293L48.8089 25.3535L48.4615 25.1984C48.2333 25.0842 47.9957 25.0084 47.7628 24.916L47.4138 24.7786C47.2995 24.7381 47.1863 24.7016 47.0724 24.6731C46.8473 24.6041 46.6065 24.6031 46.3808 24.6702C46.3256 24.691 46.2754 24.7166 46.2358 24.7343C46.235 24.7346 46.2342 24.7352 46.2336 24.7358C46.233 24.7365 46.2325 24.7372 46.2322 24.7381L46.2276 24.7507C46.2127 24.7965 46.2159 24.8461 46.2365 24.8897C46.2552 24.9297 46.282 24.9655 46.3152 24.9949C46.3753 25.0478 46.4504 25.0811 46.5303 25.0904C46.5681 25.0954 46.6066 25.0924 46.6431 25.0818C46.6758 25.0755 46.708 25.067 46.7394 25.0561C46.7924 25.0364 46.831 25.024 46.8529 25.0379C46.8742 25.0509 46.8805 25.092 46.8492 25.162C46.8263 25.2048 46.7959 25.2433 46.7593 25.2756C46.7153 25.3274 46.6581 25.3666 46.5936 25.3893C46.4388 25.451 46.2668 25.4565 46.1083 25.4048C45.9911 25.3665 45.886 25.299 45.803 25.2088C45.7435 25.1433 45.6966 25.0678 45.6644 24.9858C45.6276 24.8886 45.6109 24.785 45.6154 24.6813C45.6184 24.6027 45.6444 24.5265 45.6902 24.462L45.8051 24.2997C45.8653 24.2143 45.9358 24.1365 46.0151 24.068C46.0594 24.0299 46.1064 23.995 46.1558 23.9635C46.2085 23.9344 46.2631 23.9088 46.3193 23.887C46.5848 23.7875 46.8673 23.7394 47.1514 23.7451C47.3733 23.746 47.5948 23.7652 47.8135 23.8024L48.4149 23.8968L48.5662 23.9224L48.7144 23.9593L49.0119 24.0349C49.814 24.2405 50.5886 24.539 51.3196 24.9241C52.527 25.5905 53.6024 26.4663 54.4942 27.5093C54.5043 27.5057 54.5138 27.5024 54.5256 27.4983Z" fill="black"/>
<path d="M35.8017 48.6574L36.4351 49.007L37.0447 49.3968L37.1963 49.4951L37.3418 49.6026L37.6324 49.8181C37.7287 49.8906 37.8268 49.9606 37.9212 50.0354L38.1964 50.2703C38.5646 50.5821 38.9147 50.914 39.2451 51.2645L39.7201 51.8079C39.8757 51.9909 40.0128 52.1879 40.1592 52.3775C40.7205 53.1496 41.1965 53.9786 41.5789 54.8504C41.9489 55.7212 42.2293 56.6264 42.4158 57.5524C42.4583 57.7986 42.5102 58.0433 42.5424 58.291L42.6261 59.036L42.663 59.785C42.676 60.0345 42.6594 60.2851 42.6586 60.5349C42.6256 61.536 42.481 62.5305 42.2273 63.5004L42.029 64.1829C41.9719 64.379 41.8449 64.5481 41.6714 64.6592C41.4979 64.7703 41.2895 64.8159 41.0846 64.7876C40.8797 64.7592 40.6921 64.6588 40.5563 64.5049C40.4205 64.351 40.3457 64.1539 40.3456 63.9499L40.3459 63.9104C40.3478 61.708 40.3431 59.437 40.7724 57.1558C40.9834 56.0012 41.3286 54.8744 41.8012 53.7977C42.2839 52.6912 42.9458 51.6692 43.7609 50.7719C44.597 49.8832 45.5792 49.14 46.6662 48.5736C47.7211 48.0306 48.8309 47.5982 49.9773 47.2834C50.5409 47.1247 51.1059 46.9891 51.673 46.8692C52.2415 46.7507 52.8237 46.6463 53.4252 46.5815C54.0399 46.5099 54.6599 46.4918 55.2779 46.5274C55.9262 46.5651 56.5669 46.6846 57.1843 46.8829C57.3878 46.9483 57.5659 47.074 57.6941 47.2429C57.8224 47.4118 57.8948 47.6156 57.9012 47.8265C57.9076 48.0374 57.8479 48.2451 57.7301 48.4213C57.6124 48.5975 57.4423 48.7335 57.2432 48.8109L57.2209 48.8194C56.2487 49.1762 55.2207 49.3626 54.1833 49.3704C53.0826 49.377 51.9833 49.2908 50.8974 49.1128C49.8208 48.9655 48.7549 48.7502 47.7063 48.4683C47.1644 48.3203 46.6321 48.1398 46.1125 47.9279C45.5773 47.7138 45.0609 47.4566 44.5686 47.159C44.0635 46.8551 43.5895 46.5036 43.1531 46.1096C42.7191 45.7133 42.3261 45.2754 41.9801 44.8023C41.3223 43.8878 40.7882 42.8927 40.3913 41.8421C39.6111 39.8238 39.1292 37.7054 38.9603 35.5519C38.9406 35.2834 38.9236 35.0145 38.9142 34.7454C38.9081 34.6109 38.9037 34.4763 38.902 34.3416C38.8999 34.2058 38.8949 34.0801 38.8978 33.9149C38.8977 33.5522 38.9521 33.1914 39.0592 32.8444C39.1326 32.615 39.2422 32.3985 39.384 32.2029C39.5534 31.9715 39.7724 31.7798 40.0254 31.6412L40.0361 31.6355C40.1599 31.5689 40.2958 31.527 40.436 31.5122C40.5763 31.4974 40.7181 31.51 40.8534 31.5493C40.9886 31.5885 41.1148 31.6537 41.2245 31.741C41.3343 31.8283 41.4255 31.936 41.493 32.0581C41.5655 32.1903 41.6092 32.3361 41.6212 32.486C41.9379 36.7765 40.8146 41.0507 38.4244 44.6498C37.8679 45.486 37.2082 46.2509 36.4606 46.9269C36.0777 47.2681 35.6676 47.5783 35.2341 47.8544C34.7989 48.132 34.3384 48.369 33.8587 48.5626C33.0979 48.8811 32.274 49.026 31.4484 48.9867C30.9191 48.9673 30.4024 48.8228 29.9417 48.5653C29.4461 48.2541 29.5442 48.0393 29.9759 47.9392C30.1953 47.8768 30.5019 47.8381 30.8871 47.7656C31.3525 47.6801 31.8118 47.5648 32.2621 47.4205C32.9532 47.1901 33.6067 46.8617 34.2018 46.4456C34.821 46.0084 35.3866 45.5019 35.8873 44.9361C36.6102 44.1089 37.2308 43.1999 37.736 42.2283C38.2596 41.2528 38.6849 40.229 39.0058 39.1717C39.6523 37.0567 39.8836 34.8396 39.6876 32.6391L40.9644 33.315C40.9648 33.3157 40.9667 33.3183 40.9648 33.3154L40.9599 33.3086C40.9608 33.31 40.9617 33.3113 40.9628 33.3125C40.9654 33.3159 40.9679 33.3182 40.9665 33.3165V33.319C40.9592 33.3293 40.9531 33.3404 40.9483 33.352C40.915 33.4294 40.8935 33.5112 40.8845 33.5948C40.8676 33.7259 40.8609 33.8581 40.8645 33.9902L40.8833 34.4906C40.9185 35.171 40.9916 35.8487 41.0915 36.5217C41.297 37.8656 41.6407 39.1853 42.1173 40.4606C42.4464 41.3663 42.8757 42.2335 43.3976 43.0465C43.6467 43.4287 43.926 43.7909 44.2329 44.1298C44.3806 44.2929 44.5366 44.4486 44.7001 44.5963C44.7827 44.6684 44.8597 44.7457 44.9444 44.8151L45.1984 45.0226C45.9597 45.5978 46.813 46.0439 47.7231 46.3426C48.6858 46.6635 49.6741 46.9043 50.6777 47.0623C51.6833 47.2466 52.7007 47.3617 53.7225 47.4067C54.6716 47.452 55.6206 47.3163 56.5175 47.0071L56.5498 48.7198C55.6618 48.4221 54.6589 48.3734 53.6287 48.4756C53.1135 48.5237 52.5904 48.6077 52.0618 48.708C51.5326 48.8099 51.0068 48.9246 50.49 49.0564C49.3828 49.3254 48.3145 49.7311 47.3105 50.2642C46.3347 50.7804 45.4691 51.4773 44.7611 52.3169C44.0596 53.179 43.5054 54.1481 43.1203 55.1862C42.7235 56.249 42.4463 57.3516 42.2939 58.4742C42.0379 60.2423 42.0106 62.0686 41.9869 63.9194L40.4712 63.6741C41.4808 60.7399 41.1287 57.3579 39.6177 54.6072C39.5189 54.4378 39.4312 54.2611 39.3237 54.0969L39.0006 53.6044C38.8907 53.4417 38.7649 53.2906 38.648 53.1327C38.5875 53.0555 38.5316 52.9742 38.4673 52.9001L38.2723 52.6794C38.0135 52.3835 37.7398 52.1007 37.4522 51.832C37.1505 51.578 36.858 51.312 36.5311 51.087C36.3743 50.9659 36.2115 50.8527 36.043 50.7479C35.8745 50.6432 35.71 50.5317 35.5383 50.4317L35.014 50.146C34.8406 50.0481 34.654 49.9749 34.4748 49.8878C33.7479 49.5544 32.9878 49.2964 32.2068 49.1179C30.3457 48.6871 28.4131 48.6501 26.5365 49.0093L26.5168 48.275C27.6406 48.6119 28.8202 48.7299 29.9897 48.6223C30.6536 48.5607 30.9905 48.543 30.9878 48.6839C30.9833 48.746 30.8956 48.8538 30.7066 48.9766C30.5919 49.051 30.4719 49.1171 30.3475 49.1743C30.2748 49.2092 30.1956 49.2446 30.1089 49.2774C30.0657 49.2938 30.0212 49.3127 29.9742 49.3276C29.9269 49.3411 29.878 49.3545 29.8274 49.3677C28.6545 49.6714 27.4291 49.7237 26.234 49.521C26.0362 49.4868 25.8556 49.3883 25.7212 49.2412C25.5867 49.0942 25.506 48.907 25.492 48.7094C25.4779 48.5119 25.5313 48.3154 25.6436 48.1513C25.7559 47.9872 25.9207 47.8648 26.1117 47.8037L26.1875 47.7797C27.3749 47.4065 28.6137 47.2172 29.86 47.2186C30.8833 47.2156 31.9027 47.3442 32.8924 47.6009C33.8888 47.8551 34.8543 48.2157 35.7715 48.6761C35.7812 48.6695 35.7904 48.6635 35.8017 48.6574Z" fill="black"/>
</svg>
