<svg width="128" height="126" viewBox="0 0 128 126" fill="none" xmlns="http://www.w3.org/2000/svg">
<path d="M33.7413 43.0941C34.2405 44.3913 34.7337 45.6902 35.1928 47.0041C35.4443 47.6975 35.6888 48.3971 35.9867 49.0713C37.5802 52.6681 39.2183 56.2485 40.7234 59.8838C41.6393 62.1262 42.5316 64.3779 43.4004 66.6392L44.6929 70.0346L45.9468 73.444C46.1823 74.1405 46.3608 74.8544 46.4805 75.5789C46.543 75.8735 46.5334 76.1784 46.4526 76.4686C46.3718 76.7587 46.2221 77.0258 46.0157 77.2478C45.4578 77.875 44.5715 77.7597 44.0518 76.9086C43.7274 76.3469 43.4758 75.7475 43.3027 75.1243C42.8806 73.7122 42.3992 72.3234 41.8583 70.958C41.3224 69.5906 40.7297 68.2449 40.0803 66.9211C39.7226 66.1901 39.3052 65.4467 39.1184 64.6753C38.5186 62.2117 37.3968 59.9271 36.5988 57.5323C36.0045 55.7527 35.2727 54.0152 34.6235 52.2518L32.8821 47.536C32.2927 45.9676 31.7424 44.3831 31.1574 42.8119C30.9472 42.1936 30.7785 41.5623 30.6525 40.9221C30.5487 40.3138 30.4791 39.7003 30.4443 39.0844C30.4121 38.5397 30.7609 38.4322 31.1614 38.9154C31.7345 39.6098 32.2577 40.3427 32.7271 41.1088C32.9202 41.4232 33.0957 41.7501 33.2573 42.0841C33.4046 42.4239 33.5525 42.7649 33.6994 43.1039L33.7413 43.0941Z" fill="black"/>
<path d="M74.3236 38.9105L74.126 40.6745L73.8846 42.436C73.8007 43.0591 73.7162 43.6854 73.6866 44.3126C73.645 45.1492 73.6139 45.9864 73.5862 46.8236L73.4883 49.3336L73.3036 54.3519L73.0607 60.53L72.8522 66.7102C72.8136 67.3357 72.7294 67.9576 72.6004 68.5711C72.558 68.8248 72.4559 69.0652 72.3024 69.2731C72.1489 69.4811 71.9481 69.6508 71.7161 69.7688C71.083 70.1079 70.4174 69.7548 70.2579 68.9122C70.1663 68.3625 70.147 67.8033 70.2005 67.2487C70.3925 64.7256 70.4223 62.1931 70.2899 59.6662C70.21 58.9676 70.2112 58.2623 70.2935 57.5639C70.6744 55.4125 70.6005 53.2272 70.8494 51.0679C71.0356 49.4644 71.1056 47.8451 71.2842 46.2385C71.6138 43.3746 71.9716 40.516 72.4354 37.6708C72.5997 36.5888 72.9446 35.541 73.4562 34.5697C73.6768 34.1489 74.0405 34.2175 74.1342 34.7417C74.2625 35.4934 74.3407 36.2526 74.3682 37.0144C74.379 37.6444 74.3517 38.2745 74.2867 38.9014L74.3236 38.9105Z" fill="black"/>
<path d="M108.199 56.7124C107.534 57.5011 106.865 58.2874 106.192 59.0711C105.816 59.472 105.465 59.8945 105.14 60.3364C104.302 61.5311 103.49 62.7446 102.679 63.9573C101.866 65.169 101.047 66.3744 100.208 67.5658C99.178 69.0354 98.133 70.4937 97.0913 71.9544L93.9415 76.3193C93.6015 76.7535 93.209 77.1452 92.7725 77.4858C92.3653 77.8282 91.7852 77.8358 91.1564 77.6595C90.2403 77.4028 89.6187 76.6179 89.8512 75.8905C90.0143 75.4313 90.2725 75.0104 90.6094 74.6545C92.0742 72.9949 93.3353 71.1713 94.3668 69.2214C94.655 68.6816 94.9148 68.0905 95.3695 67.6885C96.8143 66.4008 97.7532 64.7376 99.0266 63.3259C99.9684 62.2747 100.807 61.1391 101.729 60.0704C102.55 59.1174 103.378 58.1709 104.214 57.231L106.782 54.4602C107.448 53.7338 108.28 53.1744 109.21 52.8286C109.302 52.7881 109.404 52.7755 109.503 52.7924C109.602 52.8094 109.693 52.8551 109.766 52.9236C109.838 52.9922 109.889 53.0805 109.91 53.1773C109.931 53.2741 109.922 53.3748 109.885 53.4667C109.662 54.1022 109.402 54.7241 109.104 55.3292C108.825 55.8016 108.512 56.2531 108.165 56.68L108.199 56.7124Z" fill="black"/>
<path d="M115.73 86.4813C115.477 86.5981 115.228 86.724 114.967 86.8257L114.183 87.1285C113.903 87.2285 113.633 87.3515 113.374 87.4961C112.697 87.9063 112.035 88.3432 111.352 88.7408C110.674 89.1465 109.993 89.5483 109.299 89.9245C108.446 90.3888 107.584 90.8383 106.709 91.2592L104.082 92.5225C103.797 92.6355 103.494 92.6953 103.187 92.6987C102.887 92.7194 102.551 92.4516 102.223 92.0469C101.744 91.4572 101.535 90.6792 101.804 90.3397C101.977 90.1378 102.21 89.9952 102.47 89.9323C103.618 89.5952 104.688 89.0373 105.615 88.2909C105.877 88.0846 106.125 87.8242 106.46 87.7826C107.522 87.6395 108.35 87.0157 109.325 86.6954C110.052 86.4621 110.712 86.0869 111.431 85.8332C112.71 85.3751 113.974 84.8887 115.272 84.4709C115.807 84.2899 116.385 84.2771 116.928 84.4341C116.994 84.4545 117.055 84.489 117.106 84.535C117.157 84.581 117.198 84.6375 117.224 84.7005C117.251 84.7635 117.263 84.8315 117.261 84.8997C117.258 84.9679 117.24 85.0347 117.208 85.0954C117.096 85.2514 116.978 85.4041 116.855 85.5515C116.737 85.6987 116.607 85.8356 116.465 85.9609C116.231 86.145 115.98 86.3076 115.715 86.4465L115.73 86.4813Z" fill="black"/>
<path d="M13.8409 80.276C14.4209 80.6045 14.9964 80.9383 15.5674 81.2774C15.8652 81.4644 16.1742 81.6336 16.4927 81.784C17.3569 82.1477 18.2186 82.5215 19.074 82.9119C19.9277 83.3056 20.7654 83.7312 21.5871 84.1885C22.5917 84.7616 23.5796 85.3648 24.5401 86.0084C25.5007 86.6516 26.443 87.3202 27.3671 88.0143C27.6431 88.2423 27.878 88.5144 28.062 88.8194C28.2555 89.105 28.1902 89.5266 27.986 89.9873C27.688 90.6581 27.057 91.1357 26.5906 91.0055C26.303 90.9119 26.0448 90.7467 25.8411 90.5258C24.8833 89.5667 23.7412 88.8046 22.4814 88.2839C22.1335 88.1353 21.7454 88.0246 21.4943 87.7502C20.6919 86.867 19.5824 86.4425 18.6378 85.7684C18.2846 85.5197 17.918 85.2899 17.5396 85.0802C17.1658 84.8624 16.7852 84.6562 16.4136 84.4339C15.0875 83.6427 13.7481 82.8596 12.371 82.1371C11.8016 81.8151 11.3523 81.3216 11.0891 80.7294C10.9406 80.4561 11.0759 80.162 11.4407 80.0219L11.8126 79.9219C11.8697 79.9035 11.9298 79.8963 11.9896 79.9007L12.1579 79.9039C12.3798 79.9098 12.6012 79.929 12.8208 79.9612C12.9969 79.9887 13.1695 80.0346 13.3358 80.0981C13.4981 80.1684 13.6577 80.246 13.8207 80.3134L13.8409 80.276Z" fill="black"/>
</svg>
