<svg width="98" height="26" viewBox="0 0 98 26" fill="none" xmlns="http://www.w3.org/2000/svg">
<path d="M8.4001 19.325C7.78343 19.325 7.19177 19.2583 6.6251 19.125C6.0751 19.0083 5.60843 18.8333 5.2251 18.6C4.85843 18.35 4.64176 18.0583 4.5751 17.725C4.45843 17.1083 4.29176 16.3583 4.0751 15.475C3.8751 14.5916 3.6501 13.65 3.4001 12.65C3.1501 11.6333 2.9001 10.625 2.6501 9.62498C2.4001 8.62498 2.15843 7.69998 1.9251 6.84998C1.70843 5.99998 1.5251 5.29164 1.3751 4.72498C1.24176 4.15831 1.1501 3.80831 1.1001 3.67498C1.06676 3.55831 1.03343 3.45831 1.0001 3.37498C0.983431 3.27498 0.975098 3.19164 0.975098 3.12498C0.975098 2.97498 1.05843 2.86664 1.2251 2.79998C1.39176 2.73331 1.66676 2.69998 2.0501 2.69998C2.68343 2.69998 3.3001 2.76664 3.9001 2.89998C4.51676 3.01664 5.0251 3.19164 5.4251 3.42498C5.84176 3.64164 6.06676 3.90831 6.1001 4.22498C6.13343 4.35831 6.19176 4.68331 6.2751 5.19998C6.3751 5.69998 6.5001 6.31664 6.6501 7.04998C6.8001 7.76664 6.95843 8.53331 7.1251 9.34998C7.29176 10.15 7.45843 10.9416 7.6251 11.725C7.79176 12.4916 7.9501 13.175 8.1001 13.775C8.2501 14.375 8.36676 14.825 8.4501 15.125C8.63343 14.7916 8.85843 14.3333 9.1251 13.75C9.40843 13.15 9.71676 12.475 10.0501 11.725C10.3834 10.9583 10.7251 10.1583 11.0751 9.32498C11.4251 8.49164 11.7668 7.67498 12.1001 6.87498C12.4334 6.05831 12.7334 5.31664 13.0001 4.64998C13.2668 3.96664 13.4751 3.39998 13.6251 2.94998C13.6918 2.78331 13.8501 2.69998 14.1001 2.69998C14.3334 2.69998 14.5918 2.75831 14.8751 2.87498C15.1751 2.97498 15.4251 3.14164 15.6251 3.37498C15.8418 3.59164 15.9501 3.88331 15.9501 4.24998C15.9501 4.33331 15.9251 4.44998 15.8751 4.59998C15.8251 4.73331 15.7584 4.88331 15.6751 5.04998C15.3418 5.78331 14.9751 6.59164 14.5751 7.47498C14.1751 8.35831 13.7584 9.26664 13.3251 10.2C12.9084 11.1333 12.4918 12.0583 12.0751 12.975C11.6751 13.8916 11.2918 14.75 10.9251 15.55C10.5751 16.3333 10.2668 17.0166 10.0001 17.6C9.73343 18.1833 9.54176 18.6083 9.4251 18.875C9.35843 19.025 9.25843 19.1333 9.1251 19.2C8.99177 19.2833 8.7501 19.325 8.4001 19.325Z" fill="black"/>
<path d="M19.4554 19.325C19.3554 19.325 19.1637 19.2833 18.8804 19.2C18.597 19.1166 18.297 19 17.9804 18.85C17.6637 18.6833 17.3887 18.4916 17.1554 18.275C16.922 18.0583 16.7804 17.825 16.7304 17.575C16.7137 17.4916 16.697 17.3666 16.6804 17.2C16.6637 17.0333 16.6554 16.8 16.6554 16.5C16.672 16.3 16.6887 15.9416 16.7054 15.425C16.7387 14.8916 16.772 14.2666 16.8054 13.55C16.8554 12.8166 16.897 12.0666 16.9304 11.3C16.9804 10.5333 17.022 9.79998 17.0554 9.09998C17.1054 8.38331 17.1387 7.79164 17.1554 7.32498C17.1887 6.85831 17.2054 6.56664 17.2054 6.44998C17.2054 6.26664 17.247 6.13331 17.3304 6.04998C17.4304 5.94998 17.6137 5.89998 17.8804 5.89998C18.4304 5.89998 18.997 5.97498 19.5804 6.12498C20.1637 6.25831 20.6554 6.46664 21.0554 6.74998C21.4554 7.01664 21.6554 7.35831 21.6554 7.77498C21.6554 7.89164 21.6304 8.15831 21.5804 8.57498C21.547 8.99164 21.5054 9.48331 21.4554 10.05C21.422 10.6166 21.3804 11.1916 21.3304 11.775C21.2804 12.3416 21.2387 12.85 21.2054 13.3C21.172 13.7333 21.1554 14.0333 21.1554 14.2C21.1554 14.9 21.172 15.3333 21.2054 15.5C21.2554 15.6666 21.3387 15.75 21.4554 15.75C21.522 15.75 21.6137 15.6916 21.7304 15.575C21.8637 15.4583 21.997 15.325 22.1304 15.175C22.2804 15.025 22.422 14.875 22.5554 14.725C22.6887 14.575 22.7887 14.4583 22.8554 14.375C22.9554 14.2583 23.0137 14.1916 23.0304 14.175C23.047 14.1583 23.0804 14.15 23.1304 14.15C23.2304 14.15 23.3304 14.225 23.4304 14.375C23.547 14.5083 23.6304 14.6916 23.6804 14.925C23.697 15.025 23.6887 15.1333 23.6554 15.25C23.622 15.35 23.572 15.45 23.5054 15.55C23.372 15.7666 23.1387 16.0833 22.8054 16.5C22.472 16.9166 22.097 17.3416 21.6804 17.775C21.2637 18.2083 20.8554 18.575 20.4554 18.875C20.072 19.175 19.7387 19.325 19.4554 19.325ZM19.3554 3.72498C18.922 3.72498 18.5387 3.64164 18.2054 3.47498C17.872 3.29164 17.6137 3.06664 17.4304 2.79998C17.247 2.51664 17.1554 2.24164 17.1554 1.97498C17.1554 1.52498 17.2887 1.16664 17.5554 0.899976C17.822 0.616642 18.1637 0.416642 18.5804 0.299976C19.0137 0.166642 19.4637 0.0999756 19.9304 0.0999756C20.297 0.0999756 20.647 0.158309 20.9804 0.274976C21.3304 0.374976 21.6137 0.549976 21.8304 0.799976C22.047 1.04998 22.1554 1.39164 22.1554 1.82498C22.1554 2.17498 22.0054 2.49998 21.7054 2.79998C21.422 3.08331 21.0637 3.30831 20.6304 3.47498C20.197 3.64164 19.772 3.72498 19.3554 3.72498Z" fill="black"/>
<path d="M21.6817 17.675C21.6151 17.725 21.5484 17.6833 21.4817 17.55C21.3984 17.4166 21.3317 17.25 21.2817 17.05C21.2317 16.8333 21.2067 16.6333 21.2067 16.45C21.2067 16.25 21.2401 16.1166 21.3067 16.05C22.0734 15.2333 22.7234 14.4333 23.2567 13.65C23.7901 12.8666 24.2317 12.1083 24.5817 11.375C24.9484 10.625 25.2817 9.91664 25.5817 9.24998C25.6817 9.04998 25.7484 8.99998 25.7817 9.09998C25.8317 9.19998 25.8567 9.35831 25.8567 9.57498C25.8734 9.79164 25.8734 9.97498 25.8567 10.125C25.7901 10.6916 25.6234 11.325 25.3567 12.025C25.0901 12.725 24.7567 13.4333 24.3567 14.15C23.9734 14.85 23.5484 15.5083 23.0817 16.125C22.6151 16.7416 22.1484 17.2583 21.6817 17.675Z" fill="black"/>
<path d="M27.3817 19.325C27.2817 19.325 27.0901 19.2833 26.8067 19.2C26.5401 19.1166 26.2484 19 25.9317 18.85C25.6151 18.6833 25.3317 18.4916 25.0817 18.275C24.8484 18.0583 24.7067 17.825 24.6567 17.575C24.6067 17.2583 24.5817 16.9 24.5817 16.5C24.5817 16.3 24.5901 15.9583 24.6067 15.475C24.6234 14.975 24.6484 14.4083 24.6817 13.775C24.7317 13.125 24.8067 12.4666 24.9067 11.8C25.0067 11.1333 25.1401 10.5166 25.3067 9.94998C25.4734 9.38331 25.6817 8.92498 25.9317 8.57498C26.5317 7.75831 27.2151 7.10831 27.9817 6.62498C28.7484 6.14164 29.7151 5.89998 30.8817 5.89998C31.2651 5.89998 31.6901 5.91664 32.1567 5.94998C32.6234 5.96664 33.0984 5.99998 33.5817 6.04998C33.6484 5.03331 33.7067 4.16664 33.7567 3.44998C33.8067 2.71664 33.8401 2.12498 33.8567 1.67498C33.8901 1.20831 33.9067 0.866643 33.9067 0.649976C33.9067 0.466642 33.9484 0.333308 34.0317 0.249975C34.1151 0.149975 34.2984 0.0999756 34.5817 0.0999756C35.1317 0.0999756 35.6901 0.174976 36.2567 0.324976C36.8401 0.458309 37.3317 0.666642 37.7317 0.949975C38.1317 1.21664 38.3317 1.55831 38.3317 1.97498C38.3317 2.02498 38.3151 2.18331 38.2817 2.44998C38.2651 2.71664 38.2401 3.04164 38.2067 3.42498C38.1901 3.80831 38.1651 4.20831 38.1317 4.62498C38.0984 5.02498 38.0651 5.40831 38.0317 5.77498C38.0151 6.12498 37.9984 6.39998 37.9817 6.59998H38.0817C38.1484 6.59998 38.1901 6.61664 38.2067 6.64998C38.2401 6.68331 38.2567 6.76664 38.2567 6.89998C38.2567 7.19998 38.2067 7.45831 38.1067 7.67498C38.0234 7.89164 37.9484 7.99998 37.8817 7.99998C37.8817 8.04998 37.8651 8.24164 37.8317 8.57498C37.8151 8.90831 37.7901 9.32498 37.7567 9.82498C37.7401 10.325 37.7151 10.85 37.6817 11.4C37.6484 11.9333 37.6234 12.45 37.6067 12.95C37.5901 13.45 37.5817 13.8666 37.5817 14.2C37.5817 14.8166 37.6067 15.2 37.6567 15.35C37.7067 15.5 37.7817 15.575 37.8817 15.575C37.9484 15.575 38.0401 15.525 38.1567 15.425C38.2901 15.3083 38.4317 15.175 38.5817 15.025C38.7317 14.8583 38.8651 14.7 38.9817 14.55C39.1151 14.4 39.2151 14.2833 39.2817 14.2C39.3817 14.1 39.4401 14.0416 39.4567 14.025C39.4734 13.9916 39.5067 13.975 39.5567 13.975C39.6567 13.975 39.7734 14.075 39.9067 14.275C40.0401 14.475 40.1067 14.6916 40.1067 14.925C40.1067 15.025 40.0817 15.1333 40.0317 15.25C39.9984 15.35 39.9484 15.45 39.8817 15.55C39.7484 15.7666 39.5151 16.0833 39.1817 16.5C38.8484 16.9166 38.4734 17.3416 38.0567 17.775C37.6567 18.2083 37.2651 18.575 36.8817 18.875C36.4984 19.175 36.1651 19.325 35.8817 19.325C35.7817 19.325 35.5901 19.2833 35.3067 19.2C35.0401 19.1166 34.7484 19 34.4317 18.85C34.1151 18.6833 33.8317 18.4916 33.5817 18.275C33.3484 18.0583 33.2067 17.825 33.1567 17.575C33.1401 17.4083 33.1234 17.2416 33.1067 17.075C33.0901 16.8916 33.0817 16.7 33.0817 16.5C33.0817 16.2666 33.0817 15.9833 33.0817 15.65C33.0984 15.3 33.1151 14.9416 33.1317 14.575C33.1651 14.2083 33.1901 13.85 33.2067 13.5C33.2234 13.15 33.2401 12.85 33.2567 12.6C33.1067 13.0166 32.8484 13.5166 32.4817 14.1C32.1317 14.6666 31.7234 15.2583 31.2567 15.875C30.8067 16.475 30.3317 17.0416 29.8317 17.575C29.3317 18.0916 28.8651 18.5166 28.4317 18.85C28.0151 19.1666 27.6651 19.325 27.3817 19.325ZM29.3817 15.6C29.4651 15.6 29.6151 15.4916 29.8317 15.275C30.0651 15.0583 30.3234 14.7583 30.6067 14.375C30.9067 13.9916 31.2151 13.55 31.5317 13.05C31.8484 12.55 32.1401 12.0083 32.4067 11.425C32.6901 10.8416 32.9317 10.2416 33.1317 9.62498C33.3317 8.99164 33.4484 8.37498 33.4817 7.77498C33.0651 7.65831 32.6817 7.58331 32.3317 7.54998C31.9817 7.49998 31.6651 7.47498 31.3817 7.47498C30.6151 7.47498 30.0401 8.06664 29.6567 9.24998C29.2734 10.4333 29.0817 12.0916 29.0817 14.225C29.0817 14.8416 29.0984 15.225 29.1317 15.375C29.1817 15.525 29.2651 15.6 29.3817 15.6Z" fill="black"/>
<path d="M38.0147 17.675C37.9481 17.725 37.8814 17.6833 37.8147 17.55C37.7314 17.4166 37.6647 17.25 37.6147 17.05C37.5647 16.8333 37.5397 16.6333 37.5397 16.45C37.5397 16.25 37.5731 16.1166 37.6397 16.05C38.4064 15.2333 39.0564 14.4333 39.5897 13.65C40.1231 12.8666 40.5647 12.1083 40.9147 11.375C41.2814 10.625 41.6147 9.91664 41.9147 9.24998C42.0147 9.04998 42.0814 8.99998 42.1147 9.09998C42.1647 9.19998 42.1897 9.35831 42.1897 9.57498C42.2064 9.79164 42.2064 9.97498 42.1897 10.125C42.1231 10.6916 41.9564 11.325 41.6897 12.025C41.4231 12.725 41.0897 13.4333 40.6897 14.15C40.3064 14.85 39.8814 15.5083 39.4147 16.125C38.9481 16.7416 38.4814 17.2583 38.0147 17.675Z" fill="black"/>
<path d="M47.9397 25.1C47.2064 25.1 46.5231 25.0416 45.8897 24.925C45.2731 24.8083 44.6981 24.6583 44.1647 24.475C43.6314 24.2916 43.1397 24.1 42.6897 23.9C42.4231 23.7833 42.2564 23.5833 42.1897 23.3C42.1231 23.0333 42.0897 22.8 42.0897 22.6C42.0897 22.3333 42.1231 22.1166 42.1897 21.95C42.2731 21.7833 42.3731 21.7 42.4897 21.7C42.5897 21.7 42.7647 21.75 43.0147 21.85C43.2814 21.9666 43.6231 22.0916 44.0397 22.225C44.4564 22.375 44.9397 22.5 45.4897 22.6C46.0564 22.7166 46.6731 22.775 47.3397 22.775C47.8231 22.775 48.2231 22.7 48.5397 22.55C48.8731 22.4166 49.1314 22.1333 49.3147 21.7C49.5147 21.2833 49.6564 20.65 49.7397 19.8C49.8397 18.9666 49.8897 17.8583 49.8897 16.475C49.8897 16.3416 49.8897 16.1166 49.8897 15.8C49.8897 15.4833 49.8897 15.1166 49.8897 14.7C49.8897 14.2666 49.8897 13.8416 49.8897 13.425C49.8897 13.0083 49.8814 12.65 49.8647 12.35C49.7481 12.7833 49.5147 13.3 49.1647 13.9C48.8147 14.4833 48.4064 15.0916 47.9397 15.725C47.4731 16.3583 46.9814 16.95 46.4647 17.5C45.9481 18.05 45.4647 18.4916 45.0147 18.825C44.5814 19.1583 44.2231 19.325 43.9397 19.325C43.8397 19.325 43.6481 19.2833 43.3647 19.2C43.0981 19.1166 42.8064 19 42.4897 18.85C42.1731 18.6833 41.8897 18.4916 41.6397 18.275C41.4064 18.0583 41.2647 17.825 41.2147 17.575C41.1981 17.4083 41.1814 17.2416 41.1647 17.075C41.1481 16.8916 41.1397 16.7 41.1397 16.5C41.1397 15.9333 41.1564 15.275 41.1897 14.525C41.2231 13.775 41.2731 12.9916 41.3397 12.175C41.4064 11.3416 41.4731 10.55 41.5397 9.79998C41.6064 9.03331 41.6564 8.35831 41.6897 7.77498C41.7397 7.17498 41.7731 6.73331 41.7897 6.44998C41.7897 6.26664 41.8314 6.13331 41.9147 6.04998C42.0147 5.94998 42.1981 5.89998 42.4647 5.89998C43.0314 5.89998 43.6064 5.97498 44.1897 6.12498C44.7731 6.25831 45.2564 6.46664 45.6397 6.74998C46.0397 7.01664 46.2397 7.35831 46.2397 7.77498C46.2231 8.04164 46.1814 8.45831 46.1147 9.02498C46.0647 9.59164 45.9981 10.2083 45.9147 10.875C45.8481 11.525 45.7814 12.15 45.7147 12.75C45.6647 13.35 45.6397 13.8333 45.6397 14.2C45.6397 14.8166 45.6564 15.2 45.6897 15.35C45.7397 15.5 45.8231 15.575 45.9397 15.575C46.0564 15.575 46.2481 15.4416 46.5147 15.175C46.7814 14.8916 47.0814 14.5166 47.4147 14.05C47.7481 13.5833 48.0814 13.0583 48.4147 12.475C48.7647 11.8916 49.0731 11.2916 49.3397 10.675C49.6231 9.92498 49.8147 9.22498 49.9147 8.57498C50.0147 7.90831 50.0647 7.20831 50.0647 6.47498C50.0647 6.27498 50.1064 6.13331 50.1897 6.04998C50.2897 5.94998 50.4814 5.89998 50.7647 5.89998C51.2981 5.89998 51.8481 5.97498 52.4147 6.12498C52.9981 6.25831 53.4814 6.46664 53.8647 6.74998C54.2647 7.01664 54.4647 7.35831 54.4647 7.77498C54.4647 7.85831 54.4397 8.09164 54.3897 8.47498C54.3564 8.85831 54.3231 9.44998 54.2897 10.25C54.2564 11.05 54.2147 12.1166 54.1647 13.45C54.1314 14.7833 54.1147 16.45 54.1147 18.45C54.1147 19.7333 53.9314 20.8 53.5647 21.65C53.2147 22.5 52.7397 23.175 52.1397 23.675C51.5397 24.1916 50.8731 24.5583 50.1397 24.775C49.4231 24.9916 48.6897 25.1 47.9397 25.1Z" fill="black"/>
<path d="M53.6554 18.025C53.5887 18.0916 53.5137 18.0666 53.4304 17.95C53.3304 17.8166 53.2554 17.6416 53.2054 17.425C53.1387 17.1916 53.097 16.9833 53.0804 16.8C53.047 16.6166 53.0637 16.4916 53.1304 16.425C53.6137 15.9416 54.0804 15.4333 54.5304 14.9C54.9637 14.35 55.3637 13.8 55.7304 13.25C56.0804 12.7 56.397 12.1583 56.6804 11.625C56.9804 11.0916 57.222 10.5833 57.4054 10.1C57.5887 9.61664 57.722 9.17498 57.8054 8.77498C57.872 8.55831 57.9387 8.51664 58.0054 8.64998C58.0887 8.76664 58.1554 8.99998 58.2054 9.34998C58.2387 9.51664 58.2637 9.69164 58.2804 9.87498C58.297 10.0583 58.297 10.2666 58.2804 10.5C58.2804 10.7666 58.1804 11.1333 57.9804 11.6C57.797 12.0666 57.547 12.5833 57.2304 13.15C56.9137 13.7166 56.5554 14.3 56.1554 14.9C55.7554 15.5 55.347 16.075 54.9304 16.625C54.497 17.1583 54.072 17.625 53.6554 18.025Z" fill="black"/>
<path d="M60.0054 19.325C59.9054 19.325 59.7137 19.2833 59.4304 19.2C59.1637 19.1166 58.872 19 58.5554 18.85C58.2387 18.6833 57.9554 18.4916 57.7054 18.275C57.472 18.0583 57.3304 17.825 57.2804 17.575C57.2637 17.4083 57.247 17.2416 57.2304 17.075C57.2137 16.8916 57.2054 16.7 57.2054 16.5C57.2054 15.9333 57.222 15.275 57.2554 14.525C57.3054 13.775 57.3637 12.9916 57.4304 12.175C57.497 11.3416 57.5554 10.55 57.6054 9.79998C57.672 9.03331 57.722 8.35831 57.7554 7.77498C57.8054 7.17498 57.8387 6.73331 57.8554 6.44998C57.8554 6.26664 57.9054 6.13331 58.0054 6.04998C58.1054 5.94998 58.2804 5.89998 58.5304 5.89998C59.097 5.89998 59.672 5.97498 60.2554 6.12498C60.8387 6.25831 61.322 6.46664 61.7054 6.74998C62.1054 7.01664 62.3054 7.35831 62.3054 7.77498C62.3054 8.04164 62.272 8.45831 62.2054 9.02498C62.1554 9.59164 62.0887 10.2083 62.0054 10.875C61.922 11.5416 61.847 12.175 61.7804 12.775C61.7304 13.375 61.7054 13.85 61.7054 14.2C61.7054 14.8333 61.7304 15.225 61.7804 15.375C61.8304 15.525 61.9137 15.6 62.0304 15.6C62.1304 15.6 62.3137 15.4666 62.5804 15.2C62.847 14.9166 63.147 14.5416 63.4804 14.075C63.8304 13.6083 64.172 13.0833 64.5054 12.5C64.8554 11.9 65.1554 11.2916 65.4054 10.675C65.6887 9.92498 65.8804 9.22498 65.9804 8.57498C66.0804 7.90831 66.1304 7.20831 66.1304 6.47498C66.1304 6.27498 66.172 6.13331 66.2554 6.04998C66.3554 5.94998 66.5387 5.89998 66.8054 5.89998C67.372 5.89998 67.9387 5.97498 68.5054 6.12498C69.072 6.25831 69.547 6.46664 69.9304 6.74998C70.3304 7.01664 70.5304 7.35831 70.5304 7.77498C70.5304 7.82498 70.5137 8.02498 70.4804 8.37498C70.4637 8.70831 70.4387 9.14164 70.4054 9.67498C70.3887 10.1916 70.3637 10.7416 70.3304 11.325C70.297 11.8916 70.2637 12.4333 70.2304 12.95C70.2137 13.45 70.2054 13.8666 70.2054 14.2C70.2054 14.8166 70.2304 15.2 70.2804 15.35C70.3304 15.5 70.4137 15.575 70.5304 15.575C70.597 15.575 70.6887 15.525 70.8054 15.425C70.9387 15.3083 71.072 15.175 71.2054 15.025C71.3554 14.8583 71.4887 14.7 71.6054 14.55C71.7387 14.4 71.8387 14.2833 71.9054 14.2C71.9887 14.1166 72.0387 14.0583 72.0554 14.025C72.0887 13.9916 72.1304 13.975 72.1804 13.975C72.297 13.975 72.4137 14.075 72.5304 14.275C72.6637 14.475 72.7304 14.6916 72.7304 14.925C72.7304 15.025 72.7137 15.1333 72.6804 15.25C72.647 15.35 72.5887 15.45 72.5054 15.55C72.372 15.7666 72.1387 16.0833 71.8054 16.5C71.4887 16.9166 71.122 17.3416 70.7054 17.775C70.2887 18.2083 69.8887 18.575 69.5054 18.875C69.122 19.175 68.7887 19.325 68.5054 19.325C68.4054 19.325 68.2137 19.2833 67.9304 19.2C67.6637 19.1166 67.3637 19 67.0304 18.85C66.7137 18.6833 66.4387 18.4916 66.2054 18.275C65.972 18.0583 65.8304 17.825 65.7804 17.575C65.7637 17.4083 65.747 17.2416 65.7304 17.075C65.7137 16.8916 65.7054 16.7 65.7054 16.5C65.7054 16.2666 65.7137 15.9833 65.7304 15.65C65.747 15.3 65.7637 14.9416 65.7804 14.575C65.797 14.2083 65.8137 13.85 65.8304 13.5C65.847 13.15 65.8637 12.85 65.8804 12.6C65.7304 13.0166 65.472 13.5166 65.1054 14.1C64.7554 14.6666 64.347 15.2583 63.8804 15.875C63.4304 16.475 62.9554 17.0416 62.4554 17.575C61.972 18.0916 61.5137 18.5166 61.0804 18.85C60.647 19.1666 60.2887 19.325 60.0054 19.325Z" fill="black"/>
<path d="M70.6563 17.675C70.5897 17.725 70.523 17.6833 70.4563 17.55C70.373 17.4166 70.3063 17.25 70.2563 17.05C70.2063 16.8333 70.1814 16.6333 70.1814 16.45C70.1814 16.25 70.2147 16.1166 70.2813 16.05C71.048 15.2333 71.698 14.4333 72.2313 13.65C72.7647 12.8666 73.2064 12.1083 73.5564 11.375C73.923 10.625 74.2564 9.91664 74.5564 9.24998C74.6564 9.04998 74.723 8.99998 74.7563 9.09998C74.8063 9.19998 74.8313 9.35831 74.8313 9.57498C74.848 9.79164 74.848 9.97498 74.8313 10.125C74.7647 10.6916 74.598 11.325 74.3313 12.025C74.0647 12.725 73.7313 13.4333 73.3313 14.15C72.948 14.85 72.523 15.5083 72.0564 16.125C71.5897 16.7416 71.123 17.2583 70.6563 17.675Z" fill="black"/>
<path d="M77.6563 19.325C77.1063 19.325 76.5397 19.25 75.9563 19.1C75.3897 18.9666 74.9063 18.7666 74.5063 18.5C74.123 18.2166 73.9314 17.8666 73.9314 17.45C73.9314 17.1333 73.9397 16.675 73.9563 16.075C73.9897 15.475 74.023 14.7916 74.0564 14.025C74.1064 13.2416 74.1563 12.45 74.2063 11.65C74.2563 10.8333 74.298 10.0666 74.3313 9.34998C74.3813 8.61664 74.4147 7.99998 74.4314 7.49998C74.4647 6.98331 74.4813 6.63331 74.4813 6.44998C74.4813 6.26664 74.523 6.13331 74.6063 6.04998C74.7063 5.94998 74.8897 5.89998 75.1563 5.89998C75.7063 5.89998 76.273 5.97498 76.8563 6.12498C77.4397 6.25831 77.9313 6.46664 78.3313 6.74998C78.7313 7.01664 78.9314 7.35831 78.9314 7.77498C78.9314 7.85831 78.923 8.01664 78.9063 8.24998C78.8897 8.48331 78.8647 8.75831 78.8313 9.07498C78.798 9.39164 78.7647 9.73331 78.7313 10.1C78.7147 10.4666 78.6897 10.8333 78.6563 11.2C78.623 11.55 78.5897 11.8833 78.5564 12.2C78.5397 12.5 78.523 12.75 78.5063 12.95C78.6063 12.5166 78.823 12.0083 79.1563 11.425C79.5063 10.825 79.9147 10.2083 80.3813 9.57498C80.8647 8.92498 81.3647 8.32498 81.8813 7.77498C82.398 7.20831 82.873 6.75831 83.3064 6.42498C83.7564 6.07498 84.123 5.89998 84.4063 5.89998C84.5063 5.89998 84.698 5.94164 84.9813 6.02498C85.2647 6.10831 85.5647 6.23331 85.8813 6.39998C86.2147 6.54998 86.498 6.73331 86.7313 6.94998C86.9813 7.14998 87.1314 7.38331 87.1814 7.64998C87.2147 7.79998 87.2313 7.96664 87.2313 8.14998C87.248 8.33331 87.2563 8.52498 87.2563 8.72498C87.2563 8.80831 87.248 8.98331 87.2313 9.24998C87.2147 9.49998 87.1897 9.79164 87.1563 10.125C87.123 10.4583 87.0897 10.8083 87.0564 11.175C87.023 11.525 86.9897 11.8583 86.9563 12.175C86.9397 12.475 86.9147 12.725 86.8813 12.925C86.998 12.4916 87.2313 11.975 87.5813 11.375C87.9313 10.775 88.3397 10.1583 88.8064 9.52498C89.2897 8.89164 89.7813 8.29998 90.2813 7.74998C90.7813 7.19998 91.2563 6.75831 91.7063 6.42498C92.1563 6.07498 92.5147 5.89998 92.7813 5.89998C92.898 5.89998 93.0897 5.94164 93.3563 6.02498C93.6397 6.10831 93.9397 6.23331 94.2563 6.39998C94.573 6.54998 94.848 6.73331 95.0813 6.94998C95.3147 7.14998 95.4563 7.38331 95.5063 7.64998C95.5397 7.79998 95.5564 7.96664 95.5564 8.14998C95.573 8.33331 95.5814 8.52498 95.5814 8.72498C95.5814 8.89164 95.5647 9.23331 95.5313 9.74998C95.498 10.2666 95.4563 10.8333 95.4063 11.45C95.373 12.05 95.3397 12.6083 95.3064 13.125C95.273 13.6416 95.2563 14 95.2563 14.2C95.2563 14.8166 95.273 15.2 95.3064 15.35C95.3564 15.5 95.4397 15.575 95.5564 15.575C95.623 15.575 95.7147 15.525 95.8314 15.425C95.9647 15.3083 96.098 15.175 96.2313 15.025C96.3813 14.8583 96.523 14.7 96.6563 14.55C96.7897 14.4 96.8897 14.2833 96.9564 14.2C97.0564 14.1 97.1147 14.0416 97.1313 14.025C97.148 13.9916 97.1813 13.975 97.2313 13.975C97.3313 13.975 97.448 14.075 97.5814 14.275C97.7147 14.475 97.7813 14.6916 97.7813 14.925C97.7813 15.025 97.7564 15.1333 97.7064 15.25C97.673 15.35 97.623 15.45 97.5564 15.55C97.423 15.7666 97.1897 16.0833 96.8563 16.5C96.523 16.9166 96.148 17.3416 95.7313 17.775C95.3313 18.2083 94.9397 18.575 94.5564 18.875C94.173 19.175 93.8397 19.325 93.5564 19.325C93.4564 19.325 93.2647 19.2833 92.9813 19.2C92.698 19.1166 92.398 19 92.0813 18.85C91.7647 18.6833 91.4897 18.4916 91.2563 18.275C91.023 18.0583 90.8814 17.825 90.8314 17.575C90.8147 17.4083 90.798 17.2416 90.7813 17.075C90.7647 16.8916 90.7563 16.7 90.7563 16.5C90.7563 16.3833 90.7647 16.1416 90.7813 15.775C90.8147 15.4083 90.8397 14.9833 90.8563 14.5C90.8897 14.0166 90.923 13.5416 90.9564 13.075C90.9897 12.5916 91.0147 12.1666 91.0313 11.8C91.0647 11.4333 91.0814 11.175 91.0814 11.025C91.0814 10.4083 91.0563 10.025 91.0063 9.87498C90.973 9.72498 90.898 9.64998 90.7813 9.64998C90.6813 9.64998 90.4897 9.79164 90.2063 10.075C89.9397 10.3583 89.6397 10.7333 89.3064 11.2C88.973 11.6666 88.6397 12.1916 88.3064 12.775C87.9897 13.3583 87.7147 13.95 87.4813 14.55C87.1813 15.3166 86.9813 16.025 86.8813 16.675C86.7813 17.325 86.7313 18.025 86.7313 18.775C86.7313 18.9583 86.6814 19.0916 86.5814 19.175C86.498 19.275 86.323 19.325 86.0564 19.325C85.5064 19.325 84.9397 19.25 84.3563 19.1C83.7897 18.9666 83.3063 18.7666 82.9063 18.5C82.523 18.2166 82.3313 17.8666 82.3313 17.45C82.3313 17.3333 82.3313 17.2083 82.3313 17.075C82.348 16.925 82.3563 16.775 82.3563 16.625C82.373 16.4583 82.3813 16.3166 82.3813 16.2C82.398 16.05 82.4147 15.7916 82.4314 15.425C82.4647 15.0583 82.4897 14.65 82.5063 14.2C82.5397 13.7333 82.5647 13.2833 82.5813 12.85C82.6147 12.4166 82.6397 12.0333 82.6563 11.7C82.673 11.3666 82.6814 11.1416 82.6814 11.025C82.6814 10.4083 82.6563 10.025 82.6063 9.87498C82.573 9.72498 82.498 9.64998 82.3813 9.64998C82.2813 9.64998 82.098 9.79164 81.8313 10.075C81.5647 10.3583 81.2647 10.7333 80.9314 11.2C80.598 11.6666 80.2647 12.1916 79.9314 12.775C79.598 13.3583 79.3147 13.95 79.0813 14.55C78.798 15.3166 78.598 16.025 78.4813 16.675C78.3813 17.325 78.3313 18.025 78.3313 18.775C78.3313 18.9583 78.2814 19.0916 78.1814 19.175C78.098 19.275 77.923 19.325 77.6563 19.325Z" fill="black"/>
</svg>
